SplineFontDB: 3.0
FontName: SarahAnne-Regular
FullName: Sarah Anne Regular
FamilyName: Sarah Anne
Weight: Regular
Copyright: Created by Fil Zembowicz (fil@filosophy.org) with FontForge 2.0 (http://fontforge.sf.net)
UComments: "2013-5-17: Created." 
Version: 0.1
ItalicAngle: 0
UnderlinePosition: -102
UnderlineWidth: 51
Ascent: 819
Descent: 205
LayerCount: 2
Layer: 0 0 "Back"  1
Layer: 1 0 "Fore"  0
XUID: [1021 718 483122345 13344524]
FSType: 0
OS2Version: 0
OS2_WeightWidthSlopeOnly: 0
OS2_UseTypoMetrics: 1
CreationTime: 1368839848
ModificationTime: 1377367163
OS2TypoAscent: 0
OS2TypoAOffset: 1
OS2TypoDescent: 0
OS2TypoDOffset: 1
OS2TypoLinegap: 92
OS2WinAscent: 0
OS2WinAOffset: 1
OS2WinDescent: 0
OS2WinDOffset: 1
HheadAscent: 0
HheadAOffset: 1
HheadDescent: 0
HheadDOffset: 1
MarkAttachClasses: 1
DEI: 91125
LangName: 1033 "" "" "" "" "" "" "" "" "" "" "" "" "" "Copyright (c) 2013, Fil Zembowicz (fil@filosophy.org), with Reserved Font Name 'Sarah Anne'" "http://scripts.sil.org/OFL" 
Encoding: ISO8859-1
UnicodeInterp: none
NameList: AGL For New Fonts
DisplaySize: -48
AntiAlias: 0
FitToEm: 1
WinInfo: 28 14 12
BeginPrivate: 0
EndPrivate
Grid
-1024 -399.360351562 m 0
 2048 -399.360351562 l 0
-1024 567.295898438 m 0
 2048 567.295898438 l 0
  Named: "x-height" 
-194.458007812 1331.20019531 m 0
 -194.458007812 -716.799804688 l 0
EndSplineSet
BeginChars: 256 93

StartChar: o
Encoding: 111 111 0
Width: 514
VWidth: 0
Flags: W
VStem: 362.5 96.5<181.926 406.143>
LayerCount: 2
Fore
SplineSet
174.5 283.915039062 m 0
 158.5 177.915039062 190.5 105.915206909 256.5 101.915039062 c 0
 302.459121927 99.1295208535 357.5 172.915039062 362.5 279.915039062 c 0
 367.5 386.915039062 334.5 445.915039062 288.5 447.915039062 c 0
 242.5 449.915039062 191.5 391.915039062 174.5 283.915039062 c 0
72 227 m 0
 72 350 107 535.4609375 287 516.4609375 c 1
 300 529.4609375 272 574.4609375 271 596.4609375 c 0
 270 624.4609375 296 628.4609375 312 627.4609375 c 0
 406 620.4609375 459 459 459 291 c 0
 459 123 372.5 5 260 -0 c 0
 155.1796875 -4.658203125 72 59 72 227 c 0
EndSplineSet
EndChar

StartChar: n
Encoding: 110 110 1
Width: 619
VWidth: 0
Flags: HWO
HStem: 450 110.41<314.156 408.017>
VStem: 101.516 122<39.9371 305.4> 437.071 113.929<29.0311 363.014>
LayerCount: 2
UndoRedoHistory
Layer: 1
Undoes
EndUndoes
Redoes
EndRedoes
EndUndoRedoHistory
Fore
SplineSet
203 448 m 1
 232 490 251.668945312 562.64453125 364.672851562 564.41015625 c 0
 492.672851562 566.41015625 517 484 542 378 c 1
 559 272 549 153 551 79 c 8
 551.862304688 47.111328125 568.794921875 0 529.794921875 0 c 0
 443.794921875 0 437.071289062 68.54296875 437.071289062 131.200195312 c 27
 437.071289062 258.416992188 455.475585938 450 368 450 c 0
 278 450 240.009000953 306.033396353 223.515625 230.900390625 c 0
 204 142 243 19 181 7 c 0
 89 -10 112 113 114.515625 208.900390625 c 0
 117.402988108 318.972142169 117.695847447 327.126822225 113 414 c 0
 109 488 74.666015625 560.41015625 151.672851562 560.41015625 c 0
 204.672851562 560.41015625 189 530 203 448 c 1
EndSplineSet
EndChar

StartChar: r
Encoding: 114 114 2
Width: 481
VWidth: 0
Flags: W
VStem: 99 111<27.0939 308.428>
LayerCount: 2
Fore
SplineSet
132.018554688 0 m 0
 89.0650914977 0 99 162.66796875 99 270 c 8
 99 385.977539062 63 579.163085938 106.018554688 567.295898438 c 4
 193.018554688 543.295898438 188.099609375 467.478515625 196.694335938 425 c 1
 215.698242188 451.176757812 259.749023438 481.958007812 307.694335938 497 c 0
 358.694335938 513 424.772755066 504.035577646 449.694335938 449 c 0
 473.694152832 396 332.694152832 441 253 340 c 0
 206.770078328 281.410731868 205.694152832 241 210 138 c 0
 211.926336549 91.9201795203 209.018768311 0 132.018554688 0 c 0
EndSplineSet
Validated: 33
EndChar

StartChar: a
Encoding: 97 97 3
Width: 582
VWidth: 0
Flags: HWO
HStem: -2 111.996<157.406 242.693>
LayerCount: 2
UndoRedoHistory
Layer: 1
Undoes
EndUndoes
Redoes
EndRedoes
EndUndoRedoHistory
Fore
SplineSet
187.850585938 267.998046875 m 0
 168.349609375 186.704101562 172.240234375 112 213.701171875 109.99609375 c 0
 240.8359375 108.684570312 347.120117188 160.5234375 357.120117188 243.5234375 c 0
 367.120117188 326.5234375 362.120117188 434.5234375 335.120117188 437.5234375 c 0
 308.120117188 440.5234375 208.240234375 353 187.850585938 267.998046875 c 0
80.01171875 272.608398438 m 0
 110.01171875 429.608398438 284.985351562 568.259765625 365.850585938 558.998046875 c 0
 483.240234375 545.552734375 451.091796875 248.999023438 456.240234375 179 c 0
 461.06640625 113.413085938 504.630859375 44.9453125 494.821289062 30 c 0
 446.620117188 -43.4326171875 388 43 368 84 c 1
 329 36 255.040039062 -2 174 -2 c 3
 92.7783203125 -2 50.01171875 115.608398438 80.01171875 272.608398438 c 0
EndSplineSet
EndChar

StartChar: d
Encoding: 100 100 5
Width: 621
VWidth: 0
Flags: W
VStem: 380.886 98<202.705 444.923>
LayerCount: 2
Fore
SplineSet
392.885742188 78.640625 m 1
 320.884765625 28.640625 256.885437012 -23.3592147827 177 17 c 0
 88.3711886091 61.7764870378 48.818359375 210.126953125 119 354 c 0
 159 436 214 550 376.014648438 557.8125 c 1
 376.885437012 692.640808105 370.350585938 908.1875 460.182617188 784 c 0
 489.71484375 743.172851562 472.885437012 342.640777588 478.885742188 184.640625 c 0
 482.113304361 99.6523950784 520.885742188 80.640625 506.885742188 44.640625 c 0
 473.094726562 -42.2509765625 424.885437012 20.6407852173 392.885742188 78.640625 c 1
221 320 m 0
 179 236 173 144 214 124 c 0
 255 104 319.885742188 121.640625 360.885742188 206.640625 c 0
 385.885742188 257.640625 386.885742188 356.640625 380.885742188 454.640625 c 1
 342.884765625 440.640625 263 404 221 320 c 0
EndSplineSet
EndChar

StartChar: b
Encoding: 98 98 6
Width: 563
VWidth: 0
Flags: HW
LayerCount: 2
UndoRedoHistory
Layer: 1
Undoes
EndUndoes
Redoes
EndRedoes
EndUndoRedoHistory
Fore
SplineSet
113 244 m 0
 104 420 86.076171875 855.901367188 148.927734375 814 c 0
 238.928710938 754 204.927734375 501 216.927734375 460 c 1
 246.927734375 493 267.927734375 576.295898438 395.927734375 567.295898438 c 0
 473.260742188 561.858398438 513.927734375 411.295898438 485.927734375 248.295898438 c 0
 457.927734375 85.2958984375 368.057617188 0 290 0 c 3
 141.87890625 0 121.446289062 78.8291015625 113 244 c 0
215.927734375 288 m 0
 192.927734375 183 229.927734375 119 253.927734375 114 c 0
 277.927734375 109 356.85546875 134.295898438 379.85546875 239.295898438 c 0
 402.85546875 344.295898438 385.465820312 421.1484375 361.927734375 428 c 0
 325.85546875 438.5 238.927734375 393 215.927734375 288 c 0
EndSplineSet
EndChar

StartChar: i
Encoding: 105 105 7
Width: 278
VWidth: 0
Flags: W
HStem: 724 80.2988<94.1209 198.437>
VStem: 75.8662 117.134<198.455 460.812> 88.0029 114.863<732.167 800.246>
LayerCount: 2
Fore
SplineSet
88.0029296875 768 m 0xa0
 88.0029296875 800 105.866210938 804.298828125 146.866210938 804.298828125 c 3
 184.202520343 804.298828125 200.866210938 798.298828125 202.866210938 758.298828125 c 1
 202.866210938 726.298828125 197.002929688 724 156.002929688 724 c 0
 115.002929688 724 88.0029296875 736 88.0029296875 768 c 0xa0
75.8662109375 481.298828125 m 1xc0
 75.8662109375 481.298828125 162.615269446 469.911109169 180.729492188 455.59765625 c 0
 203 438 193 343.569335938 193 237 c 3
 193 144.241210938 224 12 201 4 c 0
 162 -9 108.45613887 11.3027564452 97 55 c 24
 54.78515625 216.018554688 75.8662109375 481.298828125 75.8662109375 481.298828125 c 1xc0
EndSplineSet
Validated: 33
EndChar

StartChar: k
Encoding: 107 107 8
Width: 507
VWidth: 0
Flags: W
LayerCount: 2
Fore
SplineSet
123 808 m 0
 231 716 167.278320312 476 209.279296875 436 c 1
 235.807617188 461.583007812 302.498046875 576.771484375 357.279296875 567.295898438 c 0
 489.078125 544.500976562 223.685791016 336 211.279296875 254 c 1
 243 166 381.4453125 224.041015625 409.279296875 120 c 0
 444.967773438 -13.404296875 283.217773438 114.475585938 218.217773438 101.475585938 c 0
 192.217773438 96.4755859375 254.593865416 -20.7504300934 152.217773438 0 c 0
 95.159860538 11.564968051 111 148 110 318 c 0
 109.417661937 416.997470772 56.4636150024 864.679142776 123 808 c 0
EndSplineSet
Validated: 33
EndChar

StartChar: e
Encoding: 101 101 9
Width: 458
VWidth: 0
Flags: W
VStem: 63.3887 316.389
LayerCount: 2
Fore
SplineSet
136.040039062 483 m 0
 191.302734375 567.25 274.77734375 584.75 327.77734375 561.75 c 0
 380.77734375 538.75 409.224609375 378.302734375 343.889648438 293.401367188 c 0
 311.9375 251.879882812 204.5546875 246.5 170.5546875 228.5 c 0
 167.5546875 226.5 141.77734375 121.75 192.77734375 96.75 c 0
 240.77734375 73.75 356.77734375 209.75 379.77734375 143.75 c 0
 399.77734375 84.75 232.77734375 -15.25 161.77734375 0.75 c 1
 98.77734375 4.75 64 73.453125 63.388671875 171.1015625 c 1
 62.388671875 263.1015625 84.9736328125 405.146484375 136.040039062 483 c 0
216.889648438 439.401367188 m 0
 190.978515625 410.9453125 169.76171875 324.452148438 186.889648438 319.401367188 c 0
 204.016601562 314.3515625 268.409179688 326.818359375 288.889648438 359.401367188 c 0
 310.889648438 394.40234375 316.530273438 422.615234375 302.889648438 462.401367188 c 0
 290.889648438 497.40234375 248.588867188 474.213867188 216.889648438 439.401367188 c 0
EndSplineSet
Validated: 33
EndChar

StartChar: h
Encoding: 104 104 10
Width: 618
VWidth: 0
Flags: W
HStem: 0 542.7<111.379 379.38>
VStem: 99.3789 78.6211<392.488 502.763> 432 97.3789<39.7251 389.859>
LayerCount: 2
Fore
SplineSet
99.37890625 262.083984375 m 8
 99.37890625 478.501953125 53.0639488942 837.652026341 98 817 c 0
 191.379119873 774.08416748 170 693 178 578 c 0
 185 476 179.379882812 428.700195312 185.379882812 390.700195312 c 1
 245.380126953 492.700012207 281.379119873 540.08416748 379.379882812 542.700195312 c 1
 499.380126953 540.700012207 525.681640625 421.3125 529.37890625 306.083984375 c 0
 533.37890625 181.467773438 533.110351562 39.32421875 503.37890625 14.083984375 c 0
 423.377929688 -53.83203125 432 113.403320312 432 186 c 27
 432 277.94921875 441.379882812 387.700195312 383.379882812 416.700195312 c 0
 327.379882812 444.700195312 224.37890625 294.083984375 203.37890625 220.083984375 c 0
 172.37890625 111.083984375 217.785308838 0 111.37890625 0 c 0
 67.133761035 0 99.37890625 114.083984375 99.37890625 262.083984375 c 8
EndSplineSet
EndChar

StartChar: s
Encoding: 115 115 11
Width: 430
VWidth: 0
Flags: W
VStem: 67.7832 299
LayerCount: 2
Fore
SplineSet
84.783203125 346 m 0
 56.7822265625 425.359375 99.783203125 554.295898438 204.783203125 567.295898438 c 0
 229.783203125 570.295898438 377.783203125 534 366.783203125 442 c 0
 360.783203125 389 268.151367188 476.791015625 226.841796875 469.640625 c 0
 185.037109375 462.404296875 155.789469609 401.620134945 182.783203125 362.640625 c 0
 242.782775879 276 338.782226562 252 324.783203125 130 c 0
 313.325195312 30.15625 119.782226562 -40 67.783203125 40 c 0
 40.3671875 82.1787109375 218.907226562 66.9912109375 228.783203125 146 c 0
 238.782226562 226 109.647460938 275.52734375 84.783203125 346 c 0
EndSplineSet
EndChar

StartChar: m
Encoding: 109 109 12
Width: 762
VWidth: 0
Flags: W
HStem: 0 567.296<404 532.897>
VStem: 95 104<21.0386 419.594> 341.897 107.103<22.1752 370.64> 574.897 100<47.4749 426.802>
LayerCount: 2
UndoRedoHistory
Layer: 1
Undoes
EndUndoes
Redoes
EndRedoes
EndUndoRedoHistory
Fore
SplineSet
276.897460938 567.295898438 m 3
 322.897460938 567.295898438 342.844726562 487.5 388.844726562 491.5 c 0
 436.844726562 495.5 463.897460938 567.295898438 532.897460938 567.295898438 c 3
 621.03515625 567.295898438 668.897460938 447.5 674.897460938 317.5 c 0
 678.953125 229.627929688 697.897460938 -8 642.897460938 0 c 0
 546.897460938 14 583.897460938 199.5 574.897460938 295.5 c 0
 565.897460938 390.5 554.897460938 473.5 514.897460938 445.5 c 0
 415.260742188 375.75390625 449 291.5 449 176 c 0
 449 78.87109375 450 0 404 0 c 0
 324 0 343.897460938 150.5 341.897460938 247.5 c 0
 339.897460938 341.5 294.897460938 467.5 262.897460938 453.5 c 0
 177.012695312 415.92578125 197 312 199 214 c 0
 201 118 200 0 151.897460938 0 c 3
 80.8974609375 0 95.6328125 162.389648438 95 270 c 24
 94.4736328125 359.482421875 100.116210938 418.048828125 149 493 c 24
 182.748046875 544.744140625 223.897460938 567.295898438 276.897460938 567.295898438 c 3
EndSplineSet
EndChar

StartChar: g
Encoding: 103 103 13
Width: 562
VWidth: 0
Flags: HW
HStem: -204.233 345.233<188.369 346.737>
VStem: 361 92.0664<-66.6995 86>
LayerCount: 2
UndoRedoHistory
Layer: 1
Undoes
EndUndoes
Redoes
EndRedoes
EndUndoRedoHistory
Fore
SplineSet
177 307 m 0
 160 242 171 140 238 140 c 0
 269.064453125 140 356.3984375 154.440429688 375 219 c 0
 392 278 386.012695312 462.2109375 355 464 c 0
 303 467 194 372 177 307 c 0
86.06640625 343 m 0
 120.06640625 474 263.5703125 569.564453125 352 567.295898438 c 0
 468.93359375 564.295898438 473.93359375 425 477 293 c 0
 478.423828125 231.721679688 479.06640625 86 476.06640625 0 c 0
 472.06640625 -104 413.737304688 -204.233398438 325.737304688 -204.233398438 c 0
 243.737304688 -204.233398438 136.045898438 -129.3515625 119.737304688 -70.2333984375 c 0
 103.737304688 -12.2333984375 264.784179688 -121.732421875 319.737304688 -102.233398438 c 0
 381.737304688 -80.2333984375 387 -20 389 86 c 1
 338 39 206.950195312 41.0185546875 186.06640625 44 c 0
 102 56 52.06640625 212 86.06640625 343 c 0
EndSplineSet
EndChar

StartChar: exclam
Encoding: 33 33 14
Width: 337
VWidth: 0
Flags: W
HStem: 5 85<133.682 223.193>
VStem: 84 100<361.086 776.55> 123 111<17.7318 79.0781>
LayerCount: 2
Fore
SplineSet
84 524 m 0xc0
 72 681 102 815 137 818 c 0
 235 826 172 665 184 508 c 0
 196 351 225 246 164 233 c 0
 130 226 96 367 84 524 c 0xc0
123 21 m 4xa0
 116 47 133 81 166 90 c 4
 199 99 227 98 234 72 c 4
 241 46 234 26 190 5 c 4
 159 -10 130 -5 123 21 c 4xa0
EndSplineSet
Validated: 33
EndChar

StartChar: v
Encoding: 118 118 15
Width: 465
VWidth: 0
Flags: W
HStem: 561 20G<334.5 407.5>
LayerCount: 2
Fore
SplineSet
200 146 m 4
 234 106 226 293 248 401 c 4
 266 490 286 581 383 581 c 4
 432 581 469 483 390 500 c 5
 345 449 335 356 331 301 c 4
 322 177 340 7 231 0 c 4
 164 -4 96 90 74 181 c 28
 39 325 8 584 94 561 c 4
 165 542 104 259 200 146 c 4
EndSplineSet
EndChar

StartChar: t
Encoding: 116 116 16
Width: 500
VWidth: 0
Flags: W
HStem: 395.558 105.569<283.176 363.277>
VStem: 179.866 103.309<127.305 390.853 501.127 761.733>
LayerCount: 2
Fore
SplineSet
44 441 m 0
 27.3691652522 475.323740344 89.5435742452 480.987778777 174.970638936 489.386380373 c 1
 170.827257117 657.165569202 168.743164062 783.8359375 246.7421875 821.984375 c 0
 284.120117188 840.265625 272.373728072 707.87781916 278.332127882 501.126902598 c 1
 356.861865665 510.850878271 450.915458486 521.609176851 446 501 c 0
 433.206775798 447.362695039 370.055681431 408.382144546 283.175683033 395.558320911 c 1
 294.060883472 189.155968041 299.888671875 0 272.7421875 0 c 0
 219.7421875 0 197 53 190 133 c 0
 183 217 181.866210938 313 179.866210938 365 c 0
 179.450328227 373.695729402 179.043958621 382.314809565 178.652177249 390.853149839 c 1
 92.7766356863 390.464635108 67.7746597601 391.932730276 44 441 c 0
EndSplineSet
EndChar

StartChar: c
Encoding: 99 99 17
Width: 484
VWidth: 0
Flags: W
LayerCount: 2
Fore
SplineSet
77.19921875 290.204101562 m 0
 130.247070312 497.586914062 217.19921875 567.295898438 272.19921875 567.295898438 c 1
 345.013671875 569.030273438 416.94921875 474.811523438 393.228515625 439 c 1
 378.228515625 416 326.3515625 470.106445312 285.346679688 460.208007812 c 0
 227.346679688 446.208007812 190.19921875 346.204101562 174.19921875 275.204101562 c 0
 149.577148438 165.944335938 185.072265625 115.40625 225.346679688 100.208007812 c 0
 278.346679688 80.2080078125 375.346618652 172.208374023 381.19921875 133.204101562 c 0
 393.082317952 54.0099602858 289.19140625 0.728515625 262.228515625 0 c 0
 121.228515625 -3 33.3330078125 118.713867188 77.19921875 290.204101562 c 0
EndSplineSet
Validated: 33
EndChar

StartChar: l
Encoding: 108 108 18
Width: 303
VWidth: 0
Flags: W
VStem: 88.293 113.707<143.901 638.463>
LayerCount: 2
Fore
SplineSet
88.29296875 424.384765625 m 0
 94.29296875 668.384765625 96.3134092014 821.645579323 170.29296875 823.384765625 c 0
 239 825 199 599 202 355 c 0
 206 25 263 7 171.29296875 0 c 0
 112.329051446 -4.50071728966 80.29296875 94.384765625 88.29296875 424.384765625 c 0
EndSplineSet
Validated: 33
EndChar

StartChar: y
Encoding: 121 121 19
Width: 567
VWidth: 0
Flags: W
HStem: -239 139<294.993 394.69>
VStem: 358 132.074<-54 272>
LayerCount: 2
Fore
SplineSet
117 511 m 4
 249.040039062 441.096679688 103.170898438 207.788085938 239 157 c 4
 289.782226562 138.01171875 359.497070312 188.737304688 358 272 c 4
 356.106445312 377.291015625 316.868164062 530.224609375 407 563 c 4
 462 583 443.931640625 353.235351562 464.07421875 210 c 4
 482.07421875 82 487.791992188 50.994140625 490.07421875 -54 c 4
 492.07421875 -146 463.07421875 -220 346.07421875 -239 c 4
 269.07421875 -252 99.0380859375 -115.086914062 146.07421875 -100 c 4
 252.07421875 -66 317 -194 379 -112 c 4
 426.00390625 -49.833984375 388.07421875 15 374.07421875 107 c 5
 325 50 282.07421875 35 213.07421875 52 c 5
 111.555664062 76.06640625 72.0927734375 195.7421875 75 282 c 4
 78 371 66 538 117 511 c 4
EndSplineSet
Validated: 33
EndChar

StartChar: u
Encoding: 117 117 20
Width: 663
VWidth: 0
Flags: W
VStem: 421.748 104<205.692 516.62>
LayerCount: 2
Fore
SplineSet
252.08984375 126.747070312 m 0
 320.08984375 126.747070312 410.748046875 175.041015625 421.748046875 261.041015625 c 0
 434.748046875 371.041015625 379.13671875 602.448242188 469.748046875 561.041015625 c 0
 537.49609375 530.08203125 520.489257812 341.940429688 525.748046875 249.041015625 c 0
 531.748046875 143.040039062 573.17578125 58.74609375 561.08984375 25.7470703125 c 0
 539.125976562 -34.2236328125 447.09375 44.4931640625 445.08984375 113.747070312 c 1
 405.08984375 57.7470703125 264.08984375 -13.2529296875 205.08984375 10.7470703125 c 0
 94.08984375 55.7470703125 96.30859375 127.354492188 88.08984375 220.747070312 c 0
 77.08984375 345.747070312 69.08984375 587.747070312 134.08984375 544.747070312 c 0
 246.759765625 470.211914062 136.08984375 126.747070312 252.08984375 126.747070312 c 0
EndSplineSet
EndChar

StartChar: p
Encoding: 112 112 21
Width: 550
VWidth: 0
Flags: W
LayerCount: 2
Fore
SplineSet
125 504 m 0
 172 547 139.544921875 485.888671875 192.544921875 499.888671875 c 0
 216.544921875 506.888671875 232.030273438 561.295898438 358.030273438 567.295898438 c 0
 416.030273438 570.295898438 510.921875 420.467773438 466.544921875 223.888671875 c 0
 422.231445312 27.5869140625 273 17 261 16 c 0
 173 11 244.096679688 -118.227539062 188.544921875 -182.111328125 c 0
 68.5458984375 -320.111328125 127.370117188 20.3154296875 116.370117188 210.315429688 c 4
 108.370117188 346.315429688 74 456 125 504 c 0
218.544921875 323.888671875 m 0
 206.544921875 198.888671875 218 135 241 142 c 0
 253 146 335.168945312 114.309570312 365.168945312 232.309570312 c 0
 395.168945312 350.309570312 361.544921875 441.888671875 338.544921875 447.888671875 c 0
 315.544921875 453.888671875 230.544921875 445.888671875 218.544921875 323.888671875 c 0
EndSplineSet
Validated: 33
EndChar

StartChar: w
Encoding: 119 119 22
Width: 751
VWidth: 0
Flags: W
VStem: 584.435 113.664<120.092 493.984>
LayerCount: 2
Fore
SplineSet
186 550 m 0
 254 490 154.815429688 158.905273438 292 98 c 0
 328.0390625 82 359.079101562 183.584960938 362 294 c 4
 364.336914062 399.44921875 337.830078125 501.626953125 421.838867188 496.778320312 c 0
 532.780273438 489.767578125 408 135 547 111 c 0
 582 105 590.427734375 211.083984375 584.434570312 357.622070312 c 0
 579.571289062 477.876953125 547.966796875 592.049804688 638 560 c 0
 723.28125 530.487304688 704 350 698.098632812 211.298828125 c 0
 692.359316673 76.4063788063 660 22 594 8 c 0
 457.404296875 -20.974609375 447.960998535 58 415.9609375 88 c 1
 381.960998535 52 393.9609375 -16 276 0 c 0
 160.8984375 15.6123046875 115.295898438 127.5 110 244 c 0
 104 376 87.4970857452 636.914336107 186 550 c 0
EndSplineSet
EndChar

StartChar: H
Encoding: 72 72 23
Width: 735
VWidth: 0
Flags: W
VStem: 98.5342 126<116.137 419.829> 526 113.844<234.444 506.456>
LayerCount: 2
Fore
SplineSet
639.84375 315.599609375 m 0
 641.84375 175.599609375 688.976837814 -10.0725881006 645 4 c 0
 470 60 543 448 526 516 c 1
 456 480 264.534179688 464.266601562 231 404 c 0
 196.94140625 342.791992188 221.421875 235.080078125 224.534179688 154.266601562 c 0
 229.068359375 36.5322265625 252 -60 140.534179688 44.2666015625 c 0
 90.3418118665 91.2172058141 102.366434379 267.866216867 98.5341796875 412.266601562 c 24
 94.330078125 570.66796875 42 850 120 818 c 0
 213.803156005 779.516653947 203.534179688 624.266601562 212 530 c 1
 300 598 555.001953125 552.759765625 528 694 c 0
 515 762 518.868001087 837.076867524 568 819 c 0
 674 780 637.201171875 500.5546875 639.84375 315.599609375 c 0
EndSplineSet
EndChar

StartChar: E
Encoding: 69 69 24
Width: 569
VWidth: 0
Flags: W
LayerCount: 2
Fore
SplineSet
381.9609375 820 m 0
 483.9609375 825 507.921875 728 473.9609375 692 c 0
 438.96484375 654.90234375 399.960998535 728 350 712 c 0
 269.517811899 686.225595017 182.9609375 613 225.9609375 554 c 9
 318.78125 536.059570312 439.9609375 610 463.9609375 508 c 0
 482.9609375 425 85.2790517002 172.563023434 257.9609375 128 c 0
 319.960998535 112 381.9609375 178 483.9609375 204 c 0
 605.671875 235.024414062 371.9609375 -48 205.9609375 14 c 0
 -40.6201171875 106.096679688 181.960998535 344 273.9609375 448 c 0
 285.887262941 461.481942051 91 428 93 559 c 0
 95 670 226.9609375 812 381.9609375 820 c 0
EndSplineSet
Validated: 33
EndChar

StartChar: f
Encoding: 102 102 25
Width: 531
VWidth: 0
Flags: W
VStem: 172 110<152.373 662.066>
LayerCount: 2
Fore
SplineSet
172 432 m 0
 172 663 194.623046875 806.5703125 254.80078125 816.599609375 c 0
 350.801757812 832.598632812 444.801757812 758.133789062 462.80078125 708.134765625 c 0
 495.845703125 616.341796875 366.80078125 740.134765625 318.80078125 714.134765625 c 0
 254.80078125 680.134765625 282 446 282 386 c 0
 282 155 312.80078125 0 222.80078125 0 c 0
 186.80078125 0 172 201 172 432 c 0
76.84765625 362.400390625 m 0
 49.84765625 441.400390625 154.84765625 458.400390625 265.84765625 498.400390625 c 0
 382.84765625 540.400390625 421.154296875 501.295898438 444 461 c 0
 462.75 427.931640625 383.19921875 442.865234375 274.19921875 398.865234375 c 0
 165.19921875 354.865234375 91.84765625 318.400390625 76.84765625 362.400390625 c 0
EndSplineSet
Validated: 37
EndChar

StartChar: j
Encoding: 106 106 26
Width: 389
VWidth: 0
Flags: W
HStem: 526 20G<177.665 276.571> 722 102<168.528 293.345>
VStem: 160 144<733.806 814.277> 178 138<419.324 525.807>
LayerCount: 2
Fore
SplineSet
160 774 m 4xe0
 164 810 185 831 238 824 c 5
 290 809 309 822 304 782 c 5
 300 746 287 715 234 722 c 4
 181 729 156 738 160 774 c 4xe0
178 546 m 1xd0
 178 546 314 541 316 518 c 0xd0
 326 410 304 320 304 193 c 27xe0
 304 34 392 -166 189 -199 c 0
 39 -224 26 -46 48 -27 c 0
 109 26 114 -111 167 -111 c 0
 301 -111 178 546 178 546 c 1xd0
EndSplineSet
Validated: 33
EndChar

StartChar: z
Encoding: 122 122 27
Width: 564
VWidth: 0
Flags: W
LayerCount: 2
Fore
SplineSet
393 -75 m 5
 292.403320312 12.181640625 50.572265625 -64.962890625 79.2861328125 42 c 0
 112.362304688 165.215820312 239.376811388 282.95409462 231 453.963867188 c 24
 227.580078125 523.78125 14.1574883365 441.730265701 57 496.963867188 c 24
 115.905273438 572.90625 235.64453125 582.912109375 299.286132812 542 c 0
 439.286132812 452 202.17578125 172.890625 219.286132812 96 c 1
 277.286132812 66 471.562854188 53.6228748694 489 -51 c 0
 513 -195 185.515625 -359.553710938 162 -309 c 0
 151.619140625 -286.684570312 400 -164.963867188 393 -75 c 5
EndSplineSet
Validated: 33
EndChar

StartChar: period
Encoding: 46 46 28
Width: 196
VWidth: 0
Flags: W
HStem: 2 89<67.9146 166.609>
VStem: 55 121<14.2816 77.5723>
LayerCount: 2
Fore
SplineSet
55 37 m 4
 55 64 82 91 116 91 c 4
 150 91 176 81 176 54 c 4
 176 27 163 10 114 2 c 4
 81 -3 55 10 55 37 c 4
EndSplineSet
Validated: 33
EndChar

StartChar: x
Encoding: 120 120 29
Width: 494
VWidth: 0
Flags: W
LayerCount: 2
Fore
SplineSet
112.418945312 5 m 1
 178.418945312 8 226.559570312 165 269.559570312 277 c 0
 289.559570312 329 336.418945312 435 394.418945312 471 c 1
 464.418945312 431 458.418945312 537 411.418945312 551 c 0
 319.418945312 579 261.559570312 477 218.559570312 397 c 0
 191.559570312 347 166.559570312 275 145.559570312 223 c 0
 137.559570312 203 87.4189453125 104 81.4189453125 54 c 0
 76.4189453125 13 105.418945312 6 112.418945312 5 c 1
413.418945312 20 m 1
 437.418945312 29 356.418945312 137 329.418945312 192 c 0
 298.80859375 254.353515625 203.977539062 543.001953125 114.418945312 554 c 0
 57.4189453125 561 181.1640625 271.704101562 270.418945312 112.299804688 c 24
 302.848632812 54.3828125 341.418945312 -3 413.418945312 20 c 1
EndSplineSet
Validated: 37
EndChar

StartChar: q
Encoding: 113 113 30
Width: 544
VWidth: 0
Flags: W
HStem: -202 105<327.524 463.493>
VStem: 301.176 95.8486<-93.9425 74>
LayerCount: 2
Fore
SplineSet
139.1875 257.067382812 m 0
 126.551757812 191.080078125 146.1875 131.067382812 177.1875 129.067382812 c 0
 208.1875 127.067382812 283.813476562 159.225585938 297.1875 225.067382812 c 0
 310.188476562 289.067382812 314.17578125 438 283.17578125 440 c 0
 252.17578125 442 157.188476562 351.06640625 139.1875 257.067382812 c 0
53 323 m 0
 87 454 214.58984375 569.3515625 303.024414062 567.295898438 c 0
 389.048828125 565.295898438 391.1875 491.067382812 399.1875 389.067382812 c 0
 403.98046875 327.959960938 400.024414062 89 397.024414062 3 c 0
 393.024414062 -101 401.024414062 -97 424.024414062 -97 c 0
 478.024414062 -97 573.024414062 -10 540.024414062 -93 c 0
 502.633789062 -187.041992188 413.024414062 -202 372.024414062 -202 c 3
 283.024414062 -202 301.17578125 -34 301.17578125 74 c 1
 270.201171875 32 174.17578125 29 153.17578125 31 c 0
 63.17578125 41 19 192 53 323 c 0
EndSplineSet
Validated: 33
EndChar

StartChar: plus
Encoding: 43 43 31
Width: 626
VWidth: 0
Flags: W
LayerCount: 2
Fore
SplineSet
348.76171875 134.450195312 m 1
 373.76171875 129.450195312 350.806640625 183.981445312 354.806640625 237.981445312 c 0
 357.947265625 280.379882812 358.379882812 267.15625 366.459960938 315.793945312 c 1
 494.500976562 334.662109375 503.73828125 328.333007812 519.76171875 361.450195312 c 4
 549.76171875 423.450195312 492.706054688 398.788085938 375.96484375 402 c 1
 386.706054688 508.788085938 372.283203125 532.662109375 335.96484375 558 c 0
 292.963867188 588 294.706054688 527.359375 270.223632812 388.018554688 c 1
 161.563476562 375.6328125 100.439953141 367.702440195 92.76171875 335.450195312 c 0
 87.7621917725 314.449798584 166.58203125 275.51171875 262.069335938 295.631835938 c 1
 259.109375 268.712890625 258.884765625 266.881835938 257.76171875 243.450195312 c 0
 253.76171875 166.450195312 275.76171875 152.450195312 348.76171875 134.450195312 c 1
EndSplineSet
EndChar

StartChar: hyphen
Encoding: 45 45 32
Width: 576
VWidth: 0
Flags: W
HStem: 296.952 90.0479<105.7 461.273>
LayerCount: 2
Fore
SplineSet
75.44921875 320.185546875 m 4
 73.9438186676 377.384273093 149.776367188 382.611328125 290 387 c 4
 438.284179688 391.549804688 496.470703125 353.8125 501.44921875 334.185546875 c 4
 510.516601562 296.030273438 415.818359375 305.423828125 276.170898438 296.952148438 c 4
 136.524414062 288.479492188 76.4493408203 282.185211182 75.44921875 320.185546875 c 4
EndSplineSet
EndChar

StartChar: comma
Encoding: 44 44 33
Width: 350
VWidth: 0
Flags: W
VStem: 55 71<-127.637 60.6874>
LayerCount: 2
Fore
SplineSet
55 -50 m 5
 48 11 47 93 106 61 c 5
 151 55 134 6 126 -57 c 4
 118 -120 131 -147 103 -143 c 4
 75 -139 60 -110 55 -50 c 5
EndSplineSet
Validated: 33
EndChar

StartChar: quotesingle
Encoding: 39 39 34
Width: 155
VWidth: 0
Flags: W
HStem: 598 236<61.3296 115.198>
VStem: 61 86<636.888 815.75>
LayerCount: 2
Fore
SplineSet
61 721 m 4
 61 799 28 834 68 834 c 7
 115 834 147 817 147 739 c 7
 147 661 111 598 88 598 c 4
 48 598 61 643 61 721 c 4
EndSplineSet
Validated: 33
EndChar

StartChar: question
Encoding: 63 63 35
Width: 465
VWidth: 0
Flags: W
HStem: -2 89<223.491 319.47> 717 96<153.607 272.865>
VStem: 191.74 106<375.427 481.696> 210.74 119<10.8673 73.9294>
LayerCount: 2
Fore
SplineSet
191.740234375 446 m 0xe0
 214.326171875 553.418945312 293.740234375 567.295898438 302.740234375 623 c 0
 311.0546875 674.458984375 264.740234375 717 213.740234375 717 c 3
 113.740234375 717 75.740234375 643 64.740234375 674 c 0
 51.740234375 710 122.845703125 818.267578125 253.740234375 813 c 0
 319.740234375 810.34375 410.965820312 758.15234375 402.48046875 642.34375 c 0
 395.740234375 550.34375 335.740234375 528.34375 297.740234375 442.34375 c 0
 234.740234375 298.34375 305.740234375 239 244.740234375 231 c 0
 209.740234375 226 165.740234375 322.34375 191.740234375 446 c 0xe0
210.740234375 30 m 0xd0
 209.740234375 57 233.740234375 86 267.740234375 87 c 0
 301.740234375 88 328.740234375 81 329.740234375 54 c 0
 330.740234375 27 319.740234375 8 271.740234375 -2 c 0
 238.740234375 -9 211.740234375 3 210.740234375 30 c 0xd0
EndSplineSet
EndChar

StartChar: W
Encoding: 87 87 36
Width: 966
VWidth: 0
Flags: W
VStem: 116 75<348 774> 730 114<519.411 616.5 800.31 808.129>
LayerCount: 2
Fore
SplineSet
448 688 m 0
 376.468608077 731.165495126 441 515 442 385 c 0
 444 197 377 74 340 96 c 0
 224 163 226 581 191 774 c 0
 185 808 138 820 104 825 c 0
 33 836 88 527 116 348 c 0
 144 169 207 -53 376 -1 c 0
 482 32 500 130 521 219 c 1
 550 140 614 27 707 39 c 0
 882 62 834.843599902 492.416996806 844 790 c 24
 845.399414062 835.4765625 737 836 731 819 c 0
 695 717 728 654 730 538 c 0
 733 352 745.044921875 176.325195312 696 166 c 0
 658 158 607.15930217 234.866230492 574 358 c 0
 544.280014672 468.362208605 564 618 448 688 c 0
EndSplineSet
Validated: 41
EndChar

StartChar: I
Encoding: 73 73 37
Width: 294
VWidth: 0
Flags: W
HStem: 801.354 20G<160.27 186.814>
VStem: 103.494 100<133.118 668.464>
LayerCount: 2
Fore
SplineSet
103.494140625 399.354492188 m 7
 103.494140625 651.385742188 93.494140625 671.354492188 81.494140625 759.354492188 c 4
 75.208984375 805.450195312 153.045898438 821.354492188 167.494140625 821.354492188 c 7
 206.134765625 821.354492188 203.494140625 633.194335938 203.494140625 401.354492188 c 7
 203.494140625 169.514648438 207.494140625 55.3544921875 225.494140625 19.3544921875 c 4
 231.889648438 6.5634765625 160.280273438 -26 133.494140625 23.3544921875 c 4
 97.310546875 90.0263671875 103.494140625 253.322265625 103.494140625 399.354492188 c 7
EndSplineSet
Validated: 33
EndChar

StartChar: S
Encoding: 83 83 38
Width: 537
VWidth: 0
Flags: W
LayerCount: 2
Fore
SplineSet
395.380859375 26 m 0
 473.381011963 76 523.960998535 158 409.9609375 356 c 0
 381.053157809 406.208222055 196.505859375 644.581054688 268.380859375 708 c 0
 302.380859375 738 473.147466521 589.089626999 477.380859375 654 c 0
 483.381011963 746 397.649414062 797.119140625 303.9609375 818 c 0
 257.52734375 828.348632812 173.9609375 798 149.9609375 742 c 0
 104.59375 636.143554688 192.453125 500.077148438 331.380859375 298 c 0
 375.380859375 234 389.726902415 147.526979176 343.380859375 114 c 0
 249.381011963 46 115.053762007 225.055702108 105.380859375 176 c 0
 77.3810119629 34 286.69165789 -43.6724287577 395.380859375 26 c 0
EndSplineSet
EndChar

StartChar: F
Encoding: 70 70 39
Width: 605
VWidth: 0
Flags: HW
VStem: 146 107<42.6789 250.492>
LayerCount: 2
Fore
SplineSet
78.21484375 306.889648438 m 0
 127.225585938 377.73046875 267.661132812 407.004882812 380.8203125 411.515625 c 0
 451.9765625 414.3515625 478.668945312 391.477539062 470.330078125 350.528320312 c 0
 466.627929688 332.34765625 387.333007812 325.252929688 333.7109375 311.510742188 c 0
 230.814453125 285.139648438 26.625 232.323242188 78.21484375 306.889648438 c 0
75.40625 714.515625 m 0
 107.65625 780.055664062 543.3125 890.965820312 525.196289062 761.833984375 c 0
 512.3515625 670.278320312 434.359375 715.79296875 371.955078125 709.227539062 c 24
 256.828125 697.116210938 42.904296875 648.463867188 75.40625 714.515625 c 0
144 817 m 0
 237.466796875 806.2109375 198.678710938 675.819335938 205.520507812 580.918945312 c 24
 218.018554688 407.572265625 208.490234375 308.575195312 193.13671875 135.458007812 c 24
 188.29296875 80.841796875 228.6484375 -8.19921875 154.036132812 0.4140625 c 0
 85.5078125 8.3251953125 89.91015625 125.1171875 97.1162109375 198.23046875 c 0
 108.5 313.731445312 101.333007812 319.977539062 107.215820312 397.614257812 c 24
 119.62109375 561.333007812 39.1640625 829.102539062 144 817 c 0
EndSplineSet
EndChar

StartChar: G
Encoding: 71 71 40
Width: 630
VWidth: 0
Flags: W
HStem: 8 122<257.636 365.193> 708 106<252.185 334.363>
VStem: 57.9609 121.901<236.192 577.043> 388.484 95<152.477 352.487>
LayerCount: 2
Fore
SplineSet
303.26953125 377.616210938 m 1
 351.862304688 276 390.352539062 363.876953125 485.862304688 388 c 1
 580.056640625 415.958984375 663.862304688 398 615.862304688 470 c 0
 603.001953125 489.291015625 556.155273438 496.486328125 461.9609375 468.528320312 c 0
 367.765625 440.5703125 296.671875 399.841796875 303.26953125 377.616210938 c 1
413.484375 442.83984375 m 1
 349.484375 350.840820312 388.484375 434.334960938 388.484375 322.240234375 c 0
 388.484375 122.416992188 353.9609375 130 321.9609375 130 c 0
 264.552734375 130 179.862304688 178.176757812 179.862304688 378 c 0
 179.862304688 577.82421875 234.552734375 708 291.9609375 708 c 0
 317.165039062 708 325.862304688 696 369.862304688 654 c 1
 537.532226562 633.241210938 381.960998535 814 283.862304688 814 c 0
 141.862304688 814 57.9609375 620.880859375 57.9609375 378 c 0
 57.9609375 135.120117188 229.247070312 4.5849609375 331.862304688 8 c 0
 391.9609375 10 485.960998535 60 483.484375 266.83984375 c 0
 482.155783294 377.799663441 467.484375 462.840820312 413.484375 442.83984375 c 1
EndSplineSet
Validated: 37
EndChar

StartChar: two
Encoding: 50 50 41
Width: 696
VWidth: 0
Flags: W
LayerCount: 2
Fore
SplineSet
273.92578125 697.630859375 m 0
 235.962890625 725.44921875 166.306640625 639.299804688 138.5859375 646.900390625 c 0
 101.39453125 657.096679688 108.720995657 716.086422991 131.975585938 748.061523438 c 0
 163.975280762 792.061157227 196.434570312 816.061523438 261.975585938 816.061523438 c 3
 342.873046875 816.061523438 447.466796875 679.530273438 447.466796875 554.461914062 c 27
 447.466796875 369.11328125 330.274414062 261.291015625 289.975585938 106.061523438 c 1
 381.75390625 94.091796875 555.084960938 249.23046875 641.506835938 247.900390625 c 0
 669.685546875 247.466796875 662.307876207 170.210586179 630.325195312 146.630859375 c 24
 520.778320312 65.8662109375 410.545898438 25.5302734375 311.544921875 4.630859375 c 0
 256.49609375 -6.9912109375 177.094726562 -3.2265625 172.24609375 33.7001953125 c 0
 157.10546875 149.030273438 225.162109375 217.470703125 277.186523438 342.900390625 c 0
 327.385742188 463.930664062 382.825195312 617.831054688 273.92578125 697.630859375 c 0
EndSplineSet
EndChar

StartChar: nine
Encoding: 57 57 42
Width: 605
VWidth: 0
Flags: W
LayerCount: 2
Fore
SplineSet
191.178710938 654.923828125 m 0
 225.9375 706.051757812 294.903320312 708.599609375 315.901367188 694.32421875 c 0
 336.900390625 680.047851562 334.743164062 657.727539062 299.983398438 606.599609375 c 0
 265.224609375 555.47265625 194.177734375 536.647460938 173.178710938 550.923828125 c 0
 152.1796875 565.200195312 156.419921875 603.796875 191.178710938 654.923828125 c 0
311.901367188 818.32421875 m 27
 158.59375 818.32421875 57.1787109375 697.83203125 57.1787109375 518.923828125 c 3
 57.1787109375 457.244140625 130.834960938 422.159179688 191.178710938 434.923828125 c 0
 295.178710938 456.923828125 301.983215332 498.600036621 347.901367188 502.32421875 c 1
 357.901367188 400.32421875 349.983215332 404.600036621 357.983398438 266.599609375 c 0
 362.764305669 184.130591865 376.411416356 85.8996083879 438.983398438 -5.400390625 c 24
 458.309570312 -33.599609375 528.780273438 2.5126953125 516.983398438 34.599609375 c 0
 466.983398438 170.599609375 466.983398438 184.599609375 456.983398438 314.599609375 c 0
 444.150390625 481.436523438 450.901367188 586.32421875 456.901367188 776.32421875 c 1
 447.690429688 809.421875 406.281280597 763.524519694 375.901367188 772.32421875 c 24
 346.376953125 780.875976562 342.639648438 818.32421875 311.901367188 818.32421875 c 27
EndSplineSet
EndChar

StartChar: zero
Encoding: 48 48 43
Width: 543
VWidth: 0
Flags: W
LayerCount: 2
Fore
SplineSet
73.9052734375 413.837890625 m 0
 87.2568359375 606.858398438 148.272460938 836.865234375 258.2734375 816.865234375 c 0
 401.68359375 790.791015625 478.862304688 448.915039062 462.216796875 249.154296875 c 0
 444.764648438 39.6953125 336.526367188 -20.2353515625 225.981445312 2.1650390625 c 0
 130.015625 21.6103515625 59.40234375 204.178710938 73.9052734375 413.837890625 c 0
174.434570312 384.3046875 m 0
 169.680664062 230.454101562 227.849609375 131.365234375 257.658203125 125.844726562 c 0
 320.208007812 114.264648438 346.829101562 191.465820312 353.0859375 320 c 0
 359.290039062 447.405273438 323.290039062 647.84765625 262.1796875 661.432617188 c 0
 212.005859375 672.5859375 178.407226562 512.908203125 174.434570312 384.3046875 c 0
EndSplineSet
EndChar

StartChar: six
Encoding: 54 54 44
Width: 748
VWidth: 0
Flags: W
HStem: 0 112.973<298.572 436.867>
LayerCount: 2
Fore
SplineSet
534.513671875 284.5625 m 0
 537.799804688 324.65625 578.100585938 377.443359375 595.706054688 376 c 0
 625.60546875 373.548828125 636.977539062 316.4296875 623.08984375 269.407226562 c 0
 612.770507812 234.466796875 562.81640625 163.4375 546.341796875 169.809570312 c 0
 529.868164062 176.181640625 531.538085938 248.251953125 534.513671875 284.5625 c 0
385.111328125 112.97265625 m 0
 187.762695312 112.97265625 169.196289062 350.579101562 196.706054688 496 c 0
 219.513671875 616.5625 252.706054688 694 276.706054688 784 c 0
 289.006835938 830.127929688 179.05153687 817.44346251 159.706054688 776 c 24
 87.419921875 621.142578125 72.513671875 474.5625 72.513671875 346.5625 c 3
 72.513671875 168.952148438 182.80078125 0 417.706054688 0 c 0
 595.706054688 0 697.706054688 168 711.706054688 252 c 0
 726.245117188 327.399414062 697.462784927 447.999998294 615.706054688 476 c 1
 533.526367188 504.762695312 457.917480469 418.577514648 434.513671875 332.5625 c 0
 420.460458024 280.913325447 419.91796875 177.577148438 439.91796875 129.577148438 c 1
 432.658203125 112.036132812 406.526367188 112.97265625 385.111328125 112.97265625 c 0
EndSplineSet
Validated: 41
EndChar

StartChar: seven
Encoding: 55 55 45
Width: 493
VWidth: 0
Flags: W
VStem: 310.891 100<118.687 652.171>
LayerCount: 2
Fore
SplineSet
314 706 m 5
 262.532226562 690.630859375 161.186477206 650.435159947 77.7060546875 638 c 4
 24 630 -26.2412109375 696.555664062 0 710 c 4
 28.3251953125 724.512695312 81.1928692056 731.874289223 116 742 c 4
 226 774 385.269953703 846.042580092 406.5 805.5 c 5
 432.293945312 765 420.15625 614.551757812 410.890625 382.896484375 c 4
 401.624023438 151.2421875 401.05859375 37.013671875 417.60546875 0.3232421875 c 4
 423.484375 -12.7138671875 350.630859375 -42.388671875 325.838867188 7.9970703125 c 4
 292.348632812 76.0615234375 305.053710938 238.979492188 310.890625 384.895507812 c 4
 320.309570312 620.357421875 321.930664062 630.424804688 314 706 c 5
EndSplineSet
Validated: 33
EndChar

StartChar: three
Encoding: 51 51 46
Width: 532
VWidth: 0
Flags: W
HStem: 726.4 89.5996<77.9772 260.388>
LayerCount: 2
Fore
SplineSet
273.489257812 432.400390625 m 1
 305.489135742 492.399993896 395.435546875 618.369140625 375.489257812 712.400390625 c 0
 361.489257812 778.399414062 309.811523438 816 173 816 c 0
 113.41796875 816 63.2001953125 798.693359375 63.2001953125 768.060546875 c 0
 63.2001953125 750.036132812 53.478515625 721.094726562 87.2900390625 715.620117188 c 0
 112.489257812 711.540039062 188.20703125 731.305664062 225.489257812 726.400390625 c 0
 301.489257812 716.399414062 265.19921875 625.33984375 231 557 c 0
 196.107421875 487.275390625 118.3828125 440.817382812 143 374 c 0
 157 336 248.953125 341.2578125 299.489257812 336.400390625 c 0
 397.489257812 326.98046875 361.66015625 228.751953125 313.66015625 184.751953125 c 0
 208.907226562 88.728515625 95.4130859375 118.028320312 77.4892578125 30.400390625 c 0
 59.4892578125 -57.6005859375 336.271484375 59.205078125 405.489257812 130.400390625 c 0
 510.489257812 238.400390625 469.149414062 335.151367188 439.489257812 374.400390625 c 0
 396.848632812 430.825195312 330.978515625 418.799804688 273.489257812 432.400390625 c 1
EndSplineSet
Validated: 41
EndChar

StartChar: eight
Encoding: 56 56 47
Width: 668
VWidth: 0
Flags: W
LayerCount: 2
Fore
SplineSet
601.983398438 326.599609375 m 0
 602.108398438 126.76171875 383.983398438 -31.3994140625 243.983398438 32.599609375 c 0
 154.930664062 73.3095703125 119.983398438 138.600585938 137.983398438 216.599609375 c 0
 160.60546875 314.627929688 261.440429688 336.258789062 316.3203125 406.36328125 c 0
 328.337890625 421.71484375 74.400390625 399.990234375 76.640625 539.138671875 c 0
 78.8798828125 657.04296875 242.400390625 801.501953125 416 810 c 0
 530.240234375 815.310546875 545.919921875 718.55078125 545.919921875 650.669921875 c 3
 545.919921875 637.934570312 505.560546875 487.30859375 449.600585938 444.602539062 c 1
 519.983215332 444.600036621 601.88671875 481.06640625 601.983398438 326.599609375 c 0
451.939453125 351.25 m 0
 356.26953125 316.059570312 214.022186624 225.757550349 256.668945312 156.569335938 c 0
 282.3046875 114.979042053 359.430664062 101.422851562 444.204101562 200.907226562 c 0
 493.4296875 258.673828125 522.7421875 377.290039062 451.939453125 351.25 c 0
394.3046875 554.979492188 m 0
 434.170898438 597.842773438 455.653320312 690.631835938 410.3046875 698.979492188 c 0
 315.880859375 716.359375 136.129882812 566.248046875 218.3046875 520.979492188 c 0
 242.95703125 507.3984375 332.625976562 488.662109375 394.3046875 554.979492188 c 0
EndSplineSet
Validated: 33
EndChar

StartChar: five
Encoding: 53 53 48
Width: 548
VWidth: 0
Flags: W
LayerCount: 2
Fore
SplineSet
100.108398438 26.6953125 m 0
 86.1083984375 -39.3046875 338.243164062 66.6357421875 410.108398438 135.158203125 c 0
 496.108398438 217.158203125 536.249023438 377.676757812 445.690429688 433.384765625 c 0
 383.91796875 471.384765625 224.733398438 429.620117188 198.420898438 469.158203125 c 0
 168.063476562 514.7734375 174.27734375 624.262695312 181.96484375 655.799804688 c 0
 196.155273438 714.016601562 309.080078125 695.862304688 359.21875 710.807617188 c 0
 416.317382812 727.826171875 439.239257812 742.647460938 450.532226562 771.123046875 c 0
 462.259765625 800.690429688 469.610351562 821.76171875 435.456054688 819.171875 c 0
 410.001953125 817.2421875 359.78125 802.1640625 294.060546875 793.791015625 c 0
 207.038085938 782.708007812 79.197265625 779.7890625 74.27734375 684.262695312 c 0
 70.267578125 606.3984375 71.421875 434.455078125 115.91796875 387.384765625 c 0
 164.779296875 335.697265625 303.055664062 360.28515625 349.91796875 349.384765625 c 0
 429.87890625 330.78515625 387.848632812 235.158203125 309.91796875 181.84765625 c 0
 221.799804688 121.569335938 114.109375 92.6953125 100.108398438 26.6953125 c 0
EndSplineSet
EndChar

StartChar: L
Encoding: 76 76 49
Width: 667
VWidth: 0
Flags: W
HStem: 0 122<203.961 415.485>
VStem: 104.188 99.7734<149.001 381.312>
LayerCount: 2
Fore
SplineSet
153.78515625 808.221679688 m 0
 46.0679047976 889.517787565 107.263814302 522.41076166 104.1875 412 c 0
 97.7853088379 182.2215271 64.1884765625 0 126.1875 0 c 0
 216.823242188 0 333.111328125 -8.9345703125 434.694335938 14.84375 c 0
 517.948242188 34.33203125 612.830078125 70.181640625 576.821289062 128.348632812 c 0
 543.93359375 181.474609375 478.159179688 138.919921875 387.71484375 124.150390625 c 0
 327.0078125 114.237304688 259.864257812 124.430664062 203.9609375 122 c 1
 207.1875 266 259.785308838 728.221496582 153.78515625 808.221679688 c 0
EndSplineSet
EndChar

StartChar: O
Encoding: 79 79 50
Width: 698
VWidth: 0
Flags: W
HStem: -5.95508 125.42<313.834 453.6> 702.377 120.4<277.526 368.406>
VStem: 75.165 131.419<249.329 588.898>
LayerCount: 2
Fore
SplineSet
206.583984375 359.72265625 m 0
 207.702148438 225.038085938 291.317382812 118.72265625 380.737304688 119.46484375 c 0
 470.158203125 120.208007812 493.751953125 168.205078125 504.651367188 302.450195312 c 0
 515.5390625 436.546875 417.666015625 703.12109375 328.244140625 702.376953125 c 0
 238.82421875 701.634765625 204.907226562 561.71484375 206.583984375 359.72265625 c 0
75.1650390625 399.504882812 m 0
 73.23046875 632.442382812 161.9296875 821.384765625 329.732421875 822.77734375 c 0
 497.53515625 824.171875 632.495117188 555.463867188 622.026367188 325.146484375 c 0
 611.44921875 92.4423828125 550.344726562 -4.5615234375 382.54296875 -5.955078125 c 0
 214.741210938 -7.3486328125 77.099609375 166.569335938 75.1650390625 399.504882812 c 0
EndSplineSet
EndChar

StartChar: A
Encoding: 65 65 51
Width: 699
VWidth: 0
Flags: W
LayerCount: 2
Fore
SplineSet
520.54296875 562.42578125 m 0
 486.446289062 680.607421875 455.99998641 821.999975502 369 819 c 0
 300.776583432 816.647487237 231.439453125 567.423828125 171.672851562 388.41015625 c 0
 125.673828125 250.6328125 2.708984375 -54.041015625 121.9609375 7.4384765625 c 0
 189 42 202.775390625 162.884765625 256.073242188 318.897460938 c 1
 324.255859375 327.387695312 405.318176773 346.525284871 465.947989968 366.238852901 c 1
 483.935563512 276.78357102 497.430772941 190.262527813 500.90234375 146 c 0
 508.828125 44.9326171875 489.579454396 14.6378356902 590 4 c 0
 627.759765625 0 609.49609375 212.065429688 561.759765625 407.799804688 c 1
 585.573242188 422.993164062 570.361328125 481.438476562 542.338867188 483.8515625 c 1
 534.987304688 511.4453125 527.619140625 537.897460938 520.54296875 562.42578125 c 0
289.9609375 423.438476562 m 1
 322.400390625 527.876953125 364.555664062 650.223632812 377.9609375 669.438476562 c 1
 396.327148438 642.111328125 423.863787729 549.744865583 442.590259115 472.354185203 c 1
 407.672729492 456.409973145 338.883789062 429.630859375 289.9609375 423.438476562 c 1
EndSplineSet
EndChar

StartChar: one
Encoding: 49 49 52
Width: 416
VWidth: 0
Flags: W
VStem: 162.141 91.583<355.482 496.076>
LayerCount: 2
Fore
SplineSet
162.140625 342.030273438 m 4
 133.0703125 584.276367188 68.888671875 806.225585938 145.619140625 815.43359375 c 4
 222.348632812 824.640625 224.653320312 845.045898438 253.723632812 602.798828125 c 4
 282.79296875 360.552734375 300 0 255.629882812 -5.3916015625 c 4
 178.913085938 -14.7138671875 191.209960938 99.783203125 162.140625 342.030273438 c 4
EndSplineSet
Validated: 33
EndChar

StartChar: four
Encoding: 52 52 53
Width: 652
VWidth: 0
Flags: W
LayerCount: 2
Fore
SplineSet
530.08984375 -2.701171875 m 1
 574.616210938 1.1875 539.60546875 362.3046875 518.739257812 605.39453125 c 0
 497.873046875 848.486328125 494.879882812 828.170898438 417.8828125 821.561523438 c 0
 353.703125 816.052734375 392.978515625 674.162109375 416.38671875 481.41796875 c 1
 317.705078125 437.571289062 279.516601562 344.1171875 214 414.219726562 c 0
 194.6875 434.884765625 203.53125 817.802734375 153.559570312 819.4921875 c 0
 15.638671875 824.15625 84.166015625 618.202148438 105.033203125 375.111328125 c 0
 119.76171875 203.518554688 306.241210938 248.122070312 427.782226562 341.955078125 c 1
 450.184570312 235.13671875 431.537109375 -17.37890625 530.08984375 -2.701171875 c 1
EndSplineSet
Validated: 41
EndChar

StartChar: colon
Encoding: 58 58 54
Width: 224
VWidth: 0
Flags: W
HStem: 77.9434 88.0566<65.623 168.934> 372.4 89<67.648 167.971>
VStem: 54.7334 121<86.6884 154.65 380.311 447.973>
LayerCount: 2
Fore
SplineSet
54.4755859375 120.028320312 m 0
 57.8427734375 146.817382812 87.9990234375 170.239257812 121.733398438 166 c 0
 155.467773438 161.759765625 180.018554688 148.595703125 176.651367188 121.806640625 c 0
 173.284179688 95.0166015625 158.265625 79.7705078125 108.650390625 77.943359375 c 0
 75.28515625 77.09765625 51.109375 93.23828125 54.4755859375 120.028320312 c 0
54.7333984375 407.400390625 m 0
 54.7333984375 434.400390625 81.7333984375 461.400390625 115.733398438 461.400390625 c 0
 149.733398438 461.400390625 175.733398438 451.400390625 175.733398438 424.400390625 c 0
 175.733398438 397.400390625 162.733398438 370.799804688 113.733398438 372.400390625 c 0
 80.375 373.489257812 54.7333984375 380.400390625 54.7333984375 407.400390625 c 0
EndSplineSet
Validated: 33
EndChar

StartChar: T
Encoding: 84 84 55
Width: 635
VWidth: 0
Flags: W
VStem: 305.431 91.3115<436.844 623.488>
LayerCount: 2
Fore
SplineSet
278.319335938 686.70703125 m 1
 258.331660894 683.2879279 240.037823253 679.414909602 225.076171875 675.090820312 c 0
 166.13671875 658.056640625 -11.1474609375 662.6484375 42.0986328125 745.055664062 c 0
 60.546875 773.15625 199.9765625 778.09375 419.369140625 800 c 0
 645.803710938 822.549804688 731.186523438 885.302734375 635 746 c 0
 615.553710938 717.94921875 681.724609375 712.876953125 461.890625 702.0078125 c 0
 443.532226562 701.166992188 420.958984375 699.701171875 396.7421875 697.615234375 c 1
 398.128051758 610.278808594 407.033263955 478.748881526 418.998046875 327.46875 c 0
 436.880859375 100.6171875 428.128051758 -69.7211990356 321.247070312 25.666015625 c 0
 295.782311762 48.3923450181 312.638671875 236.81640625 305.430664062 365.65625 c 8
 298.412109375 491.115234375 300.128051758 567.295898438 278.319335938 686.70703125 c 1
EndSplineSet
EndChar

StartChar: semicolon
Encoding: 59 59 56
Width: 212
VWidth: 0
Flags: W
HStem: 340 86<94.121 199.304>
VStem: 70.2031 68.1973<-137.181 1.83781> 85.7334 116<351.656 422.577>
LayerCount: 2
Fore
SplineSet
85.7333984375 386 m 0xa0
 85.7333984375 424.639648438 102.405273438 426 137.733398438 426 c 0
 173.061523438 426 201.733398438 426.639648438 201.733398438 388 c 0
 201.733398438 349.360351562 203.061523438 340 167.733398438 340 c 0
 132.405273438 340 85.7333984375 347.360351562 85.7333984375 386 c 0xa0
70.203125 -39.7529296875 m 1xc0
 75.451171875 21.4228515625 90.748046875 101.989257812 142.221679688 58.9140625 c 1
 185.134765625 44.1015625 158.747070312 -0.548828125 138.400390625 -60.70703125 c 0
 118.053710938 -120.866210938 125.435546875 -149.909179688 98.787109375 -140.430664062 c 0
 72.138671875 -130.952148438 63.193359375 -99.5517578125 70.203125 -39.7529296875 c 1xc0
EndSplineSet
Validated: 33
EndChar

StartChar: C
Encoding: 67 67 57
Width: 485
VWidth: 0
Flags: W
HStem: 720 104<279.905 391.547>
VStem: 32.7461 119<220.252 518.543>
LayerCount: 2
Fore
SplineSet
453.421875 159.314453125 m 24
 451.205078125 232.90625 363.74609375 74 271.74609375 108 c 0
 217.896484375 127.901367188 143.033203125 200.3671875 151.74609375 400 c 0
 159.74609375 583.295898438 268.337890625 720 325.74609375 720 c 0
 350.950195312 720 363.376953125 730.599609375 407.376953125 688.599609375 c 1
 503.74609375 754 389.74609375 826 299.74609375 824 c 0
 157.78125 820.845703125 32.74609375 596.28125 32.74609375 353.400390625 c 0
 32.74609375 110.520507812 172.705078125 -12.552734375 275.376953125 -12.552734375 c 0
 378.048828125 -12.552734375 456.327148438 62.84765625 453.421875 159.314453125 c 24
EndSplineSet
Validated: 41
EndChar

StartChar: backslash
Encoding: 92 92 58
Width: 413
VWidth: 0
Flags: HW
VStem: 276.63 85.4316<29.6866 127.122>
LayerCount: 2
Fore
SplineSet
167.7109375 718.170898438 m 16
 182.400390625 643.614257812 186.916015625 634.471679688 265.294921875 412.23828125 c 0
 313.866210938 274.51953125 374.009765625 122.577148438 362.061523438 47.6669921875 c 0
 353.215820312 -7.787109375 286.852539062 -0.8955078125 288.629882812 13.294921875 c 4
 293.630859375 53.232421875 259.43359375 162.22265625 182.323242188 380.86328125 c 4
 105.212890625 599.50390625 49.28515625 739.697265625 62 786 c 12
 74.970703125 833.235351562 158.2421875 766.231445312 167.7109375 718.170898438 c 16
EndSplineSet
EndChar

StartChar: B
Encoding: 66 66 59
Width: 582
VWidth: 0
Flags: W
VStem: 119.765 102.219<116.26 233.713>
LayerCount: 2
Fore
SplineSet
221.983398438 124.599609375 m 0
 220.395507812 163.596679688 204.62109375 216.215820312 245.983398438 234.599609375 c 0
 299.983398438 258.600585938 344.285766602 287.919433594 384.286132812 261.919921875 c 0
 417.009319953 240.650444415 390.41796875 175.6484375 356.286132812 145.919921875 c 0
 322.154296875 116.189453125 224.70703125 57.6806640625 221.983398438 124.599609375 c 0
386.286132812 365.919921875 m 1
 484.751953125 473.272460938 596 704.080078125 468.286132812 792 c 0
 364.3828125 863.528320312 197.86328125 760.85546875 174.266601562 752.59765625 c 0
 122.080078125 735.81640625 180.28515625 786 112.95703125 756.307617188 c 0
 48.8759765625 728.047851562 104.590820312 523.38671875 119.764648438 388 c 0
 140.788085938 198.846679688 82.7915513829 0 183.983398438 0 c 0
 332.285766602 0 422.285766602 31.9194335938 474.286132812 125.919921875 c 0
 515.188524494 199.858724043 510.86328125 320.4375 386.286132812 365.919921875 c 1
208.286132812 626 m 0
 278.286132812 714.000976562 371.660773405 724.688794415 390.286132812 709.919921875 c 0
 458.285766602 656 411.219175958 573.059767288 364.286132812 499.919921875 c 0
 314.285766602 422 285.983398438 414.600585938 215.983398438 364.599609375 c 1
 221.983398438 414.600585938 186.013671875 598.000976562 208.286132812 626 c 0
EndSplineSet
EndChar

StartChar: P
Encoding: 80 80 60
Width: 572
VWidth: 0
Flags: HW
VStem: 115.869 109.02<354.945 577.058>
LayerCount: 2
Fore
SplineSet
121.9609375 716 m 0
 179.9609375 764 148.9609375 690 201.9609375 704 c 0
 225.9609375 711 279.9609375 810 405.9609375 816 c 0
 463.9609375 819 543.960998535 766 511.9609375 567.295898438 c 0
 479.964559528 368.614666821 367.960998535 156 267.9609375 172 c 4
 180.926012131 185.925579559 306.065995936 -11.8140031515 194.888671875 0 c 0
 81.9609985352 12 120.9609375 200 109.9609375 390 c 0
 101.9609375 526 68.005859375 671.34765625 121.9609375 716 c 0
247.9609375 534 m 0
 199.4140625 418.188476562 219.041992188 325.244140625 237.9609375 282 c 0
 251.9609375 250 342.416992188 370.403320312 373.9609375 488 c 0
 405.9609375 607.295898438 411.696289062 705.283203125 387.9609375 704 c 0
 313.9609375 700 295.033203125 646.293945312 247.9609375 534 c 0
EndSplineSet
Validated: 33
EndChar

StartChar: R
Encoding: 82 82 61
Width: 646
VWidth: 0
Flags: W
VStem: 97.6133 104<345.404 526.82>
LayerCount: 2
Fore
SplineSet
233.61328125 547.981445312 m 0
 182.321289062 462.884765625 207.61328125 381.981445312 201.61328125 341.981445312 c 1
 219.578125 331.153320312 374.321289062 428.883789062 425.61328125 513.981445312 c 1
 476.604492188 598.549804688 462.026367188 675.995117188 417.61328125 695.981445312 c 0
 377.61328125 713.981445312 284.905273438 633.079101562 233.61328125 547.981445312 c 0
97.61328125 381.981445312 m 8
 95.2548828125 537.637695312 51.61328125 781.981445312 161.61328125 775.981445312 c 0
 230.510742188 772.223632812 187.057617188 711 208.057617188 681 c 1
 275.057617188 735 339.219726562 836.309570312 444.057617188 818 c 24
 533.13671875 802.442382812 563.057617188 709.427734375 563.057617188 619 c 27
 563.057617188 444.088867188 372.61328125 314.981445312 291.61328125 261.981445312 c 1
 375.61328125 209.981445312 463.407226562 129.8125 521.61328125 141.981445312 c 0
 591.693359375 156.631835938 576.94921875 5.50390625 501.02734375 20.822265625 c 0
 394.606445312 42.29296875 288.61328125 202.981445312 201.61328125 171.981445312 c 1
 205.16796875 124.962890625 229.61328125 0 150.057617188 0 c 0
 55.61328125 0 99.4931640625 257.9140625 97.61328125 381.981445312 c 8
EndSplineSet
EndChar

StartChar: N
Encoding: 78 78 62
Width: 786
VWidth: 0
Flags: W
VStem: 110 118<246.57 525.757> 592 96<205.805 459.973>
LayerCount: 2
Fore
SplineSet
110 772 m 0
 242 870 458 286 592 204 c 1
 610 330 492 840 638 828 c 0
 720.01953125 821.258789062 668.615234375 631.817382812 688 404 c 1
 694.043192732 237.562551861 739.350439697 -22.2569888917 660 0 c 1
 448 74 344 406 228 528 c 1
 222 324 280 16 166 34 c 0
 74.1646008309 48.5003261846 123.361328125 229.642578125 110 434 c 0
 101.490234375 564.157226562 15.1369516986 701.571373231 110 772 c 0
EndSplineSet
Validated: 33
EndChar

StartChar: V
Encoding: 86 86 63
Width: 514
VWidth: 0
Flags: W
LayerCount: 2
Fore
SplineSet
282.715820312 158.200195312 m 0
 342.715820312 108.200195312 322.071289062 553.200195312 344.071289062 661.200195312 c 0
 362.071289062 750.200195312 382.071289062 819.200195312 479.071289062 819.200195312 c 0
 528.071289062 819.200195312 565.071289062 721.200195312 486.071289062 738.200195312 c 1
 441.071289062 687.200195312 436.715820312 580.200195312 432.715820312 525.200195312 c 0
 423.715820312 401.200195312 436.715820312 22.2001953125 299.715820312 14.2001953125 c 0
 232.7109375 10.287109375 166.779296875 104.90625 142.715820312 195.200195312 c 16
 105.1015625 336.342773438 77.4091796875 534.206054688 69.142578125 666.400390625 c 0
 66.244140625 712.74609375 16.7158203125 619.200195312 -3.2841796875 677.200195312 c 0
 -9.3515625 694.793945312 62.7158203125 833.200195312 115.715820312 815.200195312 c 0
 185.309570312 791.564453125 168.809570312 253.122070312 282.715820312 158.200195312 c 0
EndSplineSet
Validated: 33
EndChar

StartChar: quotedbl
Encoding: 34 34 64
Width: 335
VWidth: 0
Flags: W
HStem: 576 250 590 21G<210.645 242.145>
VStem: 63 86<614.888 793.75> 203.645 77<615.447 809.501>
LayerCount: 2
Fore
SplineSet
203.64453125 713 m 0x70
 203.64453125 791 170.64453125 826 210.64453125 826 c 3xb0
 257.64453125 826 280.64453125 802 280.64453125 724 c 3
 280.64453125 646 253.64453125 590 230.64453125 590 c 0
 190.64453125 590 203.64453125 635 203.64453125 713 c 0x70
63 699 m 0
 63 777 30 812 70 812 c 3
 117 812 149 795 149 717 c 3
 149 639 113 576 90 576 c 0
 50 576 63 621 63 699 c 0
EndSplineSet
Validated: 33
EndChar

StartChar: Z
Encoding: 90 90 65
Width: 660
VWidth: 0
Flags: W
HStem: -208 104<237.136 379.366>
LayerCount: 2
Fore
SplineSet
74.9833984375 513 m 24
 158.060546875 648.10546875 195.59247976 821.091480421 343.983398438 818 c 0
 535.983215332 814 455.983398438 498 411.983398438 358 c 1
 565.983398438 356.56640625 583.983398438 267.43359375 581.983398438 137.43359375 c 0
 579.310546875 -36.322265625 473.983215332 -212 325.983398438 -208 c 0
 202.967281919 -204.675235981 115.983215332 -110 147.983398438 0 c 0
 171.09371449 79.441256863 184.124023438 -101.966796875 297.983398438 -104 c 0
 409.983398438 -106 451.22265625 -18.7568359375 475.983398438 86 c 0
 501.983398438 196 479.984375 301.43359375 323.983398438 269.43359375 c 0
 223.65234375 248.852539062 424.193629212 641.73813207 345.983398438 695.43359375 c 0
 283.983215332 738 237.360315893 557.513724861 145.983398438 496 c 24
 122.364257812 480.099609375 60.0694591763 488.746017969 74.9833984375 513 c 24
EndSplineSet
Validated: 33
EndChar

StartChar: slash
Encoding: 47 47 66
Width: 455
VWidth: 0
Flags: W
VStem: 73.1631 71.4316<34.608 133.912>
LayerCount: 2
Fore
SplineSet
267.513671875 724.9609375 m 20
 252.82421875 650.404296875 248.30859375 641.26171875 169.9296875 419.028320312 c 4
 121.358398438 281.309570312 61.21484375 129.3671875 73.1630859375 54.45703125 c 4
 82.0087890625 -0.9970703125 146.372070312 5.89453125 144.594726562 20.0849609375 c 4
 139.59375 60.0224609375 173.791015625 169.012695312 250.901367188 387.653320312 c 4
 328.01171875 606.293945312 383.939453125 746.487304688 371.224609375 792.790039062 c 12
 358.426757812 839.39453125 276.856445312 772.37890625 267.513671875 724.9609375 c 20
EndSplineSet
EndChar

StartChar: Y
Encoding: 89 89 67
Width: 590
VWidth: 0
Flags: W
LayerCount: 2
Fore
SplineSet
334 1 m 0
 462 1 469.178526845 177.870148593 492.057617188 311.981445312 c 28
 525.52734375 508.170898438 536.057617188 811.981445312 474.057617188 821.981445312 c 0
 332.609375 844.795898438 438 548 393 442 c 1
 312 482 230 742 90 698 c 0
 5.3232421875 671.387695312 170.184788201 560.017716976 225 474 c 24
 271.622070312 400.83984375 336 349 350 290 c 0
 376.0625 180.166992188 253.7421875 1 334 1 c 0
EndSplineSet
Validated: 41
EndChar

StartChar: K
Encoding: 75 75 68
Width: 596
VWidth: 0
Flags: W
LayerCount: 2
Fore
SplineSet
219.942382812 500 m 1
 291.931640625 588.06640625 314.220703125 805.477539062 475.942382812 821 c 1
 567.102539062 827.38671875 246.708984375 424.69921875 255.942382812 345 c 1
 248.884765625 297 591.884765625 338 491.942382812 223 c 0
 421.53125 141.98046875 269.942382812 252 223.942382812 198 c 1
 198.419067383 110 279.911132812 0.04296875 186.942382812 -2 c 4
 50.4189453125 -5 111.902597019 263.49708622 100.942382812 438 c 24
 91.4443359375 589.215820312 26.9423828125 806 135 825 c 0
 235.817382812 842.7265625 157.942382812 526 219.942382812 500 c 1
EndSplineSet
Validated: 33
EndChar

StartChar: M
Encoding: 77 77 69
Width: 1024
VWidth: 0
Flags: W
LayerCount: 2
Fore
SplineSet
364 672 m 0
 562.432642121 698.239027057 375.736366737 59.3522510933 541.791015625 31.6767578125 c 0
 589.790771484 23.6768798828 605.618164062 95.328125 589.791015625 207.676757812 c 0
 568.002929688 362.336914062 561.913691985 643.355361287 738 670 c 0
 892.447308175 693.370316369 703.479492188 51.6875 891 9 c 0
 1014 -19 932 40.72265625 932 208 c 0
 932 301.594726562 947.538789924 500.040392494 916 616 c 0
 887.220563878 721.814209262 831.497172438 795.908506799 748 794 c 0
 660.755859375 792.005859375 589 724 535 724 c 0
 464.677734375 724 474 790 368 792 c 0
 302.154296875 793.2421875 290.34375 738 234 738 c 24
 191.04296875 738 206 792 138 792 c 0
 97.1630859375 792 84 766 94 708 c 0
 125.3671875 526.069335938 119.53515625 432.038085938 118 254 c 0
 116 22 101.791015625 -12.3232421875 193 4 c 0
 356.279296875 33.220703125 122 640 364 672 c 0
EndSplineSet
EndChar

StartChar: J
Encoding: 74 74 70
Width: 558
VWidth: 0
Flags: W
LayerCount: 2
Fore
SplineSet
392.8125 14 m 0
 308.997070312 -19.5263671875 142.62763747 -2.26219864702 97 164 c 0
 66.8125 274 234.41015625 111.546875 314.8125 130 c 0
 436.8125 158 293.395507812 387.88671875 242.8125 598 c 0
 229.8125 652 125.521484375 573.157226562 66.8125 620 c 0
 -27.1875 695 159.954101562 688.5390625 195.8125 731 c 0
 223.900390625 764.259765625 192 815 288 821 c 0
 366.549804688 825.909179688 342.901367188 694.216796875 355.8125 608 c 16
 374.530273438 483.009765625 472.388671875 317.084960938 486.8125 194 c 4
 499.109375 89.0625 452.8125 38 392.8125 14 c 0
EndSplineSet
Validated: 33
EndChar

StartChar: U
Encoding: 85 85 71
Width: 691
VWidth: 0
Flags: W
VStem: 433.785 102<275.648 531.256>
LayerCount: 2
Fore
SplineSet
535.78515625 260.221679688 m 0
 538 392 610 822 462 818 c 0
 393.907226562 816.159179688 433.78515625 696.92578125 433.78515625 516.221679688 c 0
 433.78515625 372.327148438 408.958007812 83.982421875 295.78515625 124.221679688 c 0
 264.879882812 135.209960938 222.626953125 186.041015625 214 284 c 0
 206.763671875 366.154296875 208.403320312 485.068359375 200.248046875 572.54296875 c 0
 189.809570312 684.5078125 151.733398438 758.16015625 83.5703125 750.443359375 c 0
 45.27734375 746.109375 90.8810021167 636.758796343 94.5908203125 564.022460938 c 24
 101.653320312 425.557617188 101.22265625 332.509765625 111.190429688 208.911132812 c 0
 121.749023438 77.9814453125 213.3984375 0 326 0 c 0
 426 0 446 50 470 74 c 1
 482 18 494 0 590 0 c 0
 634 0 533.962455798 151.77502108 535.78515625 260.221679688 c 0
EndSplineSet
EndChar

StartChar: X
Encoding: 88 88 72
Width: 638
VWidth: 0
Flags: W
LayerCount: 2
Fore
SplineSet
180 828 m 0
 86 828 196.05859375 635.318359375 208 578 c 0
 238 434 276.3515625 335.965820312 320 220 c 0
 378.069335938 65.7197265625 414.612304688 20.283203125 458 18 c 0
 564.022460938 12.419921875 438 174 384 342 c 0
 354.916992188 432.479492188 325.044921875 515.891601562 306 604 c 0
 281.1328125 719.045898438 263.8125 828 180 828 c 0
88.193359375 78.015625 m 0
 70.8154296875 39.0634765625 107.038085938 -12.4228515625 149.690429688 -12.4228515625 c 0
 230 -12.4228515625 161.194335938 38.5068359375 238 140 c 0
 294 214 382.518554688 326.619140625 440 422 c 0
 522.463867188 558.833984375 650 718 558 722 c 0
 486.814400955 725.095026045 401.354492188 568.700195312 346 460 c 1
 294 452 282.175308876 393.368552422 246 340 c 8
 179.075195312 241.266601562 156 230 88.193359375 78.015625 c 0
EndSplineSet
Validated: 37
EndChar

StartChar: Q
Encoding: 81 81 73
Width: 764
VWidth: 0
Flags: W
HStem: 0 127.438<278.496 407.29> 679.438 138<288.789 389.705>
VStem: 91.9609 122<213.688 552.649> 511 114.961<289.557 529.194>
LayerCount: 2
Fore
SplineSet
91.9609375 358 m 0
 91.9609375 584.872070312 165.065429688 817.438476562 301.9609375 817.438476562 c 0
 438.857421875 817.438476562 625.9609375 626.872070312 625.9609375 400 c 0
 625.9609375 305.07686192 597.758468939 219.562068719 554.926452049 152.199788892 c 1
 556.577560572 147.511369741 558.285479158 142.743373956 560.068359375 137.891601562 c 0
 579.950195312 83.7880859375 679.1796875 -30.095703125 579.9609375 -8.5615234375 c 0
 520.851152734 4.26667230716 488.281191603 26.7002737959 467.893470004 54.7098227206 c 1
 423.252830576 19.7725199263 374.224570946 0 327.9609375 0 c 0
 191.065429688 0 91.9609375 131.127929688 91.9609375 358 c 0
213.9609375 364 m 0
 213.9609375 210.543945312 257.848632812 127.438476562 343.9609375 127.438476562 c 0
 372.464482988 127.438476562 400.399879919 140.816829613 425.020288954 164.282202897 c 1
 416.405809458 191.743574703 405.440587628 219.839746751 385.44921875 246.697265625 c 0
 365.318359375 273.7421875 313.623058856 293.637683991 336.778320312 318.143554688 c 0
 369.267578125 352.528320312 421.151297846 353.153234415 457.9609375 323.438476562 c 0
 472.788973922 311.468484905 484.693564134 299.272004429 494.584263556 286.638578998 c 1
 505.021090442 321.8945359 511.000000027 361.289173455 511 403 c 0
 511 556.456 424.073242188 679.438476562 337.9609375 679.438476562 c 0
 251.848632812 679.438476562 213.9609375 517.456054688 213.9609375 364 c 0
EndSplineSet
Validated: 33
EndChar

StartChar: D
Encoding: 68 68 74
Width: 624
VWidth: 0
Flags: W
LayerCount: 2
Fore
SplineSet
243.983398438 454.599609375 m 0
 191.68359375 303.3046875 231.092773438 117.615234375 268.534179688 120.266601562 c 0
 316.55078125 123.666992188 390.234375 214.970703125 442.534179688 366.266601562 c 0
 494.833984375 517.561523438 507.639648438 694.603515625 453 705 c 0
 416.125 712.016601562 296.283203125 605.895507812 243.983398438 454.599609375 c 0
234 634 m 0
 320 806 427.386987929 825.957329598 507.983398438 812.599609375 c 0
 606.533996582 796.266235352 622.534179688 588.962890625 560.534179688 378.266601562 c 0
 497.268554688 163.270507812 352.534179688 0 272.534179688 0 c 0
 207.450195312 0 109 70.6005859375 109 282.599609375 c 0
 109 372.600585938 131.133789062 470.006835938 123 576.599609375 c 0
 116.174804688 666.03515625 47 746.599609375 111 746.599609375 c 0
 243 746.599609375 226.541942637 619.083885274 234 634 c 0
EndSplineSet
EndChar

StartChar: at
Encoding: 64 64 75
Width: 840
VWidth: 0
Flags: W
HStem: -40 65.7773<235.297 424.33> 91.7773 111.996<328.481 408.999> 720 98<411.769 571.706>
VStem: 682.075 75.9248<225.948 591.79>
LayerCount: 2
Fore
SplineSet
328.92578125 267.998046875 m 0
 309.424804688 186.704101562 313.315429688 112 354.776367188 109.99609375 c 0
 381.911132812 108.684570312 472.390625 160.5234375 482.390625 243.5234375 c 0
 492.390625 326.5234375 503.1953125 434.5234375 476.1953125 437.5234375 c 0
 449.1953125 440.5234375 349.315429688 353 328.92578125 267.998046875 c 0
221.086914062 272.608398438 m 0
 251.086914062 429.608398438 426.060546875 568.259765625 506.92578125 558.998046875 c 0
 624.315429688 545.552734375 592.166992188 248.999023438 597.315429688 179 c 0
 602.141601562 113.413085938 637.912109375 115.215820312 652 126.22265625 c 0
 698.075195312 162.22265625 680.075195312 300.22265625 680.075195312 364.22265625 c 0
 680.075195312 434.22265625 666.07421875 622.22265625 484 626.22265625 c 1
 397.724609375 628.564453125 243.90234375 492.211914062 202.075195312 394.22265625 c 0
 165.270507812 308 128.745117188 139.215820312 167.270507812 36 c 0
 196.466796875 -42.22265625 247.875 -65.794921875 327.270507812 -68 c 0
 399.270507812 -70 557.227539062 14.50390625 563.270507812 0 c 0
 573.21484375 -23.8662109375 449.270507812 -136 334.1953125 -133.77734375 c 0
 259.5546875 -132.334960938 125.314453125 -110.22265625 87.2705078125 10 c 0
 50.4521484375 126.348632812 92.33203125 349.075195312 139.270507812 450 c 0
 188.465820312 555.77734375 350 724.22265625 478 724.22265625 c 0
 594 724.22265625 756 616.22265625 756 376.22265625 c 0
 756 200.2109375 766 70 662 40.22265625 c 0
 596.626659422 21.5049213032 526.119140625 49.0595703125 509.075195312 84 c 1
 470.075195312 36 396.114257812 -2 315.075195312 -2 c 3
 233.853515625 -2 191.086914062 115.608398438 221.086914062 272.608398438 c 0
EndSplineSet
EndChar

StartChar: parenleft
Encoding: 40 40 76
Width: 399
VWidth: 0
Flags: W
VStem: 86.8828 95.1172<182.828 495.292>
LayerCount: 2
Fore
SplineSet
194.8828125 752 m 0
 155.369140625 687.0390625 88.7978515625 537.03515625 86.8828125 301.393554688 c 0
 85.7080078125 156.849609375 175.532226562 -19.400390625 221.326171875 -79.875 c 0
 255.227539062 -124.642578125 335.94140625 -98.2353515625 312.8828125 -70 c 0
 287.423828125 -38.8251953125 180.8828125 155.393554688 182 332 c 0
 183.466796875 563.834960938 312.822265625 746.487304688 300.107421875 792.790039062 c 8
 288.453125 835.232421875 222.416992188 797.267578125 194.8828125 752 c 0
EndSplineSet
EndChar

StartChar: parenright
Encoding: 41 41 77
Width: 399
VWidth: 0
Flags: W
VStem: 217.766 95.1172<185.658 499.179>
LayerCount: 2
Fore
SplineSet
204.8828125 752 m 0
 244.396484375 687.0390625 310.967773438 541.641601562 312.8828125 306 c 0
 314.057617188 161.456054688 224.233398438 -24.0068359375 178.439453125 -84.4814453125 c 0
 144.538085938 -129.249023438 63.82421875 -102.841796875 86.8828125 -74.6064453125 c 0
 112.341796875 -43.431640625 218.8828125 160 217.765625 336.606445312 c 0
 216.298828125 568.44140625 86.943359375 746.487304688 99.658203125 792.790039062 c 8
 111.3125 835.232421875 177.348632812 797.267578125 204.8828125 752 c 0
EndSplineSet
EndChar

StartChar: bracketleft
Encoding: 91 91 78
Width: 399
VWidth: 0
Flags: W
VStem: 70.8828 83.1172<142.327 613.092>
LayerCount: 2
Fore
SplineSet
142 806 m 4
 68.4111328125 786.872070312 72.7978515625 603.03515625 70.8828125 367.393554688 c 4
 69.7080078125 222.849609375 60 -26 140 -84 c 4
 186.310546875 -117.575195312 336 -118 346 -50 c 4
 348.516601562 -32.8876953125 246 -44 190 0 c 4
 147.743161754 33.201801479 153.36328125 295.288085938 154 396 c 4
 154.883789062 535.615234375 149.163085938 663.479492188 194 720 c 4
 223.616210938 757.333984375 314.80859375 745.256835938 324 762 c 12
 359.141601562 826.013671875 193.280273438 819.330078125 142 806 c 4
EndSplineSet
EndChar

StartChar: bracketright
Encoding: 93 93 79
Width: 399
VWidth: 0
Flags: W
VStem: 249.883 83.1172<144.319 618.909>
LayerCount: 2
Fore
SplineSet
270 792 m 0
 336.1171875 756 331.084960938 603.03515625 333 367.393554688 c 0
 334.174804688 222.849609375 340.822265625 -34.9111328125 279.8203125 -80 c 0
 233.8203125 -114 75.8203125 -118 65.8203125 -50 c 0
 63.3037109375 -32.8876953125 176.720703125 -45.099609375 221.8203125 0 c 0
 259.8203125 38 250.51953125 295.288085938 249.8828125 396 c 0
 248.999023438 535.615234375 254.719726562 663.479492188 209.8828125 720 c 0
 180.266601562 757.333984375 89.07421875 745.256835938 79.8828125 762 c 8
 43.7607421875 827.799804688 223.465820312 817.336914062 270 792 c 0
EndSplineSet
EndChar

StartChar: underscore
Encoding: 95 95 80
Width: 569
VWidth: 0
Flags: W
HStem: -79.0479 79.0479<45.4845 510.564>
LayerCount: 2
Fore
SplineSet
20 -49 m 0
 38 8 186 0 276 0 c 0
 424.353964114 0 535.021484375 -18.373046875 540 -38 c 0
 549.067382812 -76.1552734375 416 -81 262.170898438 -79.0478515625 c 0
 122.279296875 -77.2724609375 11.8083411595 -74.9402529949 20 -49 c 0
EndSplineSet
EndChar

StartChar: equal
Encoding: 61 61 81
Width: 663
VWidth: 0
Flags: W
HStem: 195.952 90.0479<85.6895 544.901> 370 92<97.5297 550.134>
LayerCount: 2
Fore
SplineSet
84 400 m 0
 78.84375 485.002929688 201.707706413 462 342 462 c 0
 468 462 579.021484375 441.626953125 584 422 c 0
 593.067382812 383.844726562 487.647460938 378.471679688 348 370 c 0
 208.353515625 361.52734375 87.0517578125 352.421875 84 400 c 0
78 236 m 0
 76 310 193.776367188 281.611328125 334 286 c 0
 482.284179688 290.549804688 571.021484375 265.626953125 576 246 c 0
 585.067382812 207.844726562 459.818359375 204.423828125 320.170898438 195.952148438 c 0
 180.524414062 187.479492188 79.2880674157 188.34150562 78 236 c 0
EndSplineSet
EndChar

StartChar: asciicircum
Encoding: 94 94 82
Width: 514
VWidth: 0
Flags: W
LayerCount: 2
Fore
SplineSet
83.96484375 509.799804688 m 0
 75.96484375 603.799804688 210.57421875 724.799804688 256.96484375 724.799804688 c 0
 306.963867188 724.799804688 432.96484375 585.799804688 428.96484375 503.799804688 c 0
 427.0546875 464.62890625 312.918945312 619.796875 256.96484375 616.799804688 c 0
 200.96484375 613.799804688 88.0078125 462.294921875 83.96484375 509.799804688 c 0
EndSplineSet
EndChar

StartChar: braceleft
Encoding: 123 123 83
Width: 471
VWidth: 0
Flags: W
VStem: 70 110<326.877 405.402> 150 96<442.476 698.406>
LayerCount: 2
Fore
SplineSet
210.8359375 778.5625 m 4x40
 158.616412423 748.625140437 152 600 150 488 c 4x40
 148.926699536 427.895174014 70 421.097539278 70 372 c 4x80
 70 326 145.134765625 269.776367188 150 236 c 4x40
 167.8046875 112.3828125 143.130532956 19.1001536472 192.51953125 -40.763671875 c 4
 228.921875 -84.88671875 396 -114 400.459960938 -59.5498046875 c 4
 401.87192066 -42.3116531108 305.166015625 -28.6455078125 262 28 c 4
 237.874221115 59.6599310969 248.244140625 161.057617188 248 268 c 4
 247.915039062 305.440429688 177.79368397 325.873679401 180 370 c 4x80
 182 410 244 416 246 478 c 4
 249.588276583 589.236574086 237.162680474 631.965078352 262 690 c 4
 280.749023438 733.811523438 393.538085938 765.428710938 398 784 c 12
 415.059570312 855.00390625 256.801757812 804.915039062 210.8359375 778.5625 c 4x40
EndSplineSet
EndChar

StartChar: braceright
Encoding: 125 125 84
Width: 471
VWidth: 0
Flags: W
VStem: 224.46 96<442.476 698.406> 290.46 110<326.877 405.402>
LayerCount: 2
Fore
SplineSet
259.624023438 778.5625 m 0x80
 311.84375 748.625 318.459960938 600 320.459960938 488 c 0x80
 321.533203125 427.895507812 400.459960938 421.09765625 400.459960938 372 c 0x40
 400.459960938 326 325.325195312 269.776367188 320.459960938 236 c 0x80
 302.655273438 112.3828125 327.329101562 19.1005859375 277.940429688 -40.763671875 c 0
 241.538085938 -84.88671875 74.4599609375 -114 70 -59.5498046875 c 0
 68.587890625 -42.3115234375 165.293945312 -28.6455078125 208.459960938 28 c 0
 232.5859375 59.66015625 222.215820312 161.057617188 222.459960938 268 c 0
 222.544921875 305.440429688 292.666015625 325.874023438 290.459960938 370 c 0x40
 288.459960938 410 226.459960938 416 224.459960938 478 c 0
 220.872070312 589.236328125 233.296875 631.96484375 208.459960938 690 c 0
 189.7109375 733.811523438 76.921875 765.428710938 72.4599609375 784 c 8
 55.400390625 855.00390625 213.658203125 804.915039062 259.624023438 778.5625 c 0x80
EndSplineSet
EndChar

StartChar: bar
Encoding: 124 124 85
Width: 238
VWidth: 0
Flags: HW
VStem: 74 100<133.603 665.81>
LayerCount: 2
Fore
SplineSet
74 399.354492188 m 3
 74 651.385742188 63.01171875 752.645507812 80.505859375 788 c 0
 98.8125 824.997070312 134.452148438 823.995117188 142.505859375 812 c 0
 181.01171875 754.645507812 164 633.194335938 164 401.354492188 c 3
 164 169.514648438 150 60 168 24 c 0
 174.395507812 11.208984375 112.786132812 -21.3544921875 86 28 c 0
 49.81640625 94.671875 74 253.322265625 74 399.354492188 c 3
EndSplineSet
EndChar

StartChar: asciitilde
Encoding: 126 126 86
Width: 641
VWidth: 0
Flags: W
HStem: 196 206
LayerCount: 2
Fore
SplineSet
65.05078125 255.8515625 m 0
 59.89453125 340.854492188 137 412 250 402 c 0
 314.879606907 396.258441867 360.409179688 302.880859375 421 283 c 0
 485 262 572.891351828 338.05323203 574 312 c 0
 576 265 488.424804688 178.86328125 406 196 c 0
 341.967773438 209.313476562 288.790039062 314.09765625 234 317 c 0
 119.829101562 323.047851562 68.1025390625 208.2734375 65.05078125 255.8515625 c 0
EndSplineSet
EndChar

StartChar: greater
Encoding: 62 62 87
Width: 472
VWidth: 0
Flags: W
VStem: 275.356 117.972<325.569 403.538>
LayerCount: 2
Fore
SplineSet
70.6171875 644.170898438 m 20
 55.927734375 569.614257812 275.356445312 408.971679688 275.356445312 368 c 4
 275.356445312 322.971679688 76.21484375 129.3671875 88.1630859375 54.45703125 c 4
 97.0087890625 -0.9970703125 176.10546875 5.8095703125 174.328125 20 c 4
 169.327148438 59.9375 393.328125 328.344726562 393.328125 372 c 4
 393.328125 424.346679688 170.872070312 601.231445312 150.328125 668 c 4
 134.329101562 720 76.8896484375 676.005859375 70.6171875 644.170898438 c 20
EndSplineSet
EndChar

StartChar: less
Encoding: 60 60 88
Width: 464
VWidth: 0
Flags: HW
LayerCount: 2
Fore
SplineSet
393.328125 644.170898438 m 16
 408.017578125 569.614257812 188.588867188 408.971679688 188.588867188 368 c 0
 188.588867188 322.971679688 387.73046875 129.3671875 375.782226562 54.45703125 c 0
 366.936523438 -0.9970703125 287.83984375 5.8095703125 289.6171875 20 c 0
 294.618164062 59.9375 70.6171875 328.344726562 70.6171875 372 c 0
 70.6171875 424.346679688 293.073242188 601.231445312 313.6171875 668 c 0
 329.616210938 720 387.055664062 676.005859375 393.328125 644.170898438 c 16
EndSplineSet
EndChar

StartChar: asterisk
Encoding: 42 42 89
Width: 527
VWidth: 0
Flags: W
LayerCount: 2
Fore
SplineSet
172.90234375 325.674804688 m 0
 172.90234375 352.450195312 71.08984375 346.075195312 72.447265625 395.799804688 c 0
 73.1796875 422.596679688 203.596679688 396.934570312 208.197265625 414.924804688 c 0
 226.984375 488.3671875 241.858398438 536.049804688 272 536.049804688 c 0
 311.368164062 536.049804688 308.915039062 428.786132812 333.087890625 413.650390625 c 0
 357.522460938 398.349609375 453.264648438 423.874023438 452.547851562 399.625 c 0
 451.190429688 353.724609375 345.584960938 344.84375 344 324 c 0
 342.642578125 306.150390625 417.252929688 190.525390625 362.953125 186.700195312 c 0
 343.720703125 185.345703125 290 279 267 297 c 1
 242 281 190.549804688 171.400390625 155.254882812 189.25 c 0
 128.5 202.780273438 172.90234375 294.92578125 172.90234375 325.674804688 c 0
EndSplineSet
EndChar

StartChar: grave
Encoding: 96 96 90
Width: 263
VWidth: 0
Flags: W
LayerCount: 2
Fore
SplineSet
86 730 m 0
 37.71484375 791.2578125 20.4014511869 788.143813779 51.6748046875 813.083007812 c 0
 108 858 136.271053333 856.440846705 172.52734375 787.37890625 c 0
 210 716 230.62109375 671.5 212 658 c 1
 192.5234375 643.879882812 134.286132812 668.7421875 86 730 c 0
EndSplineSet
EndChar

StartChar: numbersign
Encoding: 35 35 91
Width: 801
VWidth: 0
Flags: W
HStem: 238 81.2334<60.751 417.691> 470 81.2334<154.751 499.023>
VStem: 153.672 71.4316<30.9547 130.259> 381.672 71.4316<30.9547 130.259>
LayerCount: 2
Fore
SplineSet
136.098632812 493.233398438 m 0
 137.099609375 455.233398438 197.173828125 461.52734375 336.8203125 470 c 0
 476.467773438 478.471679688 757.887695312 477.844726562 748.8203125 516 c 0
 743.841796875 535.626953125 498.3828125 555.783203125 350.098632812 551.233398438 c 0
 209.875 546.844726562 134.59375 550.431640625 136.098632812 493.233398438 c 0
42.0986328125 261.233398438 m 0
 43.099609375 223.233398438 103.173828125 229.52734375 242.8203125 238 c 0
 382.467773438 246.471679688 691.166015625 235.078125 682.098632812 273.233398438 c 0
 677.120117188 292.860351562 404.3828125 323.783203125 256.098632812 319.233398438 c 0
 115.875 314.844726562 40.59375 318.431640625 42.0986328125 261.233398438 c 0
576.022460938 721.307617188 m 16
 561.333007812 646.750976562 556.817382812 637.608398438 478.438476562 415.375 c 0
 429.8671875 277.65625 369.723632812 125.713867188 381.671875 50.8037109375 c 0
 390.517578125 -4.650390625 454.880859375 2.2412109375 453.103515625 16.431640625 c 0
 448.102539062 56.369140625 482.299804688 165.359375 559.41015625 384 c 0
 636.520507812 602.640625 692.448242188 742.833984375 679.733398438 789.13671875 c 8
 666.935546875 835.741210938 585.365234375 768.725585938 576.022460938 721.307617188 c 16
348.022460938 721.307617188 m 16
 333.333007812 646.750976562 328.817382812 637.608398438 250.438476562 415.375 c 0
 201.8671875 277.65625 141.723632812 125.713867188 153.671875 50.8037109375 c 0
 162.517578125 -4.650390625 226.880859375 2.2412109375 225.103515625 16.431640625 c 0
 220.102539062 56.369140625 254.299804688 165.359375 331.41015625 384 c 0
 408.520507812 602.640625 464.448242188 742.833984375 451.733398438 789.13671875 c 8
 438.935546875 835.741210938 357.365234375 768.725585938 348.022460938 721.307617188 c 16
EndSplineSet
EndChar

StartChar: percent
Encoding: 37 37 92
Width: 667
VWidth: 0
Flags: W
HStem: 94.9199 63.2803<454.132 514.94> 244.88 71.1201<459.834 526.382> 476 63.2803<165.617 226.424> 634.88 71.1201<177.355 236.643>
VStem: 99.4219 64.9883<539.699 624.254> 208.06 71.4316<34.608 133.912> 238.895 67.5156<550.04 633.686> 387.938 64.9883<158.619 239.596> 527.41 67.5156<168.96 243.669>
LayerCount: 2
Fore
SplineSet
452.92578125 194.919921875 m 4xf980
 452.92578125 170.7421875 457.43359375 158.200195312 481.610351562 158.200195312 c 4
 505.788085938 158.200195312 527.41015625 191.822265625 527.41015625 216 c 4
 527.41015625 240.177734375 515.375976562 244.879882812 491.198242188 244.879882812 c 4
 467.021484375 244.879882812 452.92578125 219.09765625 452.92578125 194.919921875 c 4xf980
387.9375 191.83984375 m 4
 387.9375 256.975585938 435.274414062 316 500.41015625 316 c 4
 565.546875 316 594.92578125 280.055664062 594.92578125 214.919921875 c 4
 594.92578125 149.784179688 542.0625 94.919921875 476.92578125 94.919921875 c 4
 411.790039062 94.919921875 387.9375 126.704101562 387.9375 191.83984375 c 4
164.41015625 576 m 0
 164.41015625 551.822265625 168.91796875 539.280273438 193.094726562 539.280273438 c 0
 217.272460938 539.280273438 238.89453125 572.90234375 238.89453125 597.080078125 c 0xfb80
 238.89453125 621.2578125 233.375976562 634.879882812 209.198242188 634.879882812 c 0
 185.021484375 634.879882812 164.41015625 600.177734375 164.41015625 576 c 0
99.421875 572.919921875 m 0
 99.421875 638.055664062 153.274414062 706 218.41015625 706 c 0
 283.546875 706 306.41015625 661.135742188 306.41015625 596 c 0
 306.41015625 530.864257812 253.546875 476 188.41015625 476 c 0
 123.274414062 476 99.421875 507.784179688 99.421875 572.919921875 c 0
402.41015625 724.9609375 m 16
 387.720703125 650.404296875 383.205078125 641.26171875 304.826171875 419.028320312 c 0
 256.254882812 281.309570312 196.111328125 129.3671875 208.059570312 54.45703125 c 0
 216.905273438 -0.9970703125 281.268554688 5.89453125 279.491210938 20.0849609375 c 0xfd80
 274.490234375 60.0224609375 308.6875 169.012695312 385.797851562 387.653320312 c 0
 462.908203125 606.293945312 518.8359375 746.487304688 506.12109375 792.790039062 c 8
 493.323242188 839.39453125 411.752929688 772.37890625 402.41015625 724.9609375 c 16
EndSplineSet
EndChar
